<svg xmlns="http://www.w3.org/2000/svg" viewBox="0 0 500 500"><g id="freepik--background-complete--inject-5"><rect x="72.7" y="412.9" width="32.2" height="11.19" style="fill:#ebebeb"></rect><rect x="54.73" y="427.01" width="32.2" height="11.19" style="fill:#ebebeb"></rect><rect x="240.68" y="324.92" width="32.2" height="11.19" style="fill:#ebebeb"></rect><rect x="222.72" y="339.03" width="32.2" height="11.19" style="fill:#ebebeb"></rect><rect x="204.83" y="324.92" width="32.2" height="11.19" style="fill:#ebebeb"></rect><rect x="413.06" y="427.01" width="32.2" height="11.19" style="fill:#ebebeb"></rect><rect x="395.1" y="50.16" width="32.2" height="11.19" style="fill:#ebebeb"></rect><rect x="413.06" y="64.27" width="32.2" height="11.19" style="fill:#ebebeb"></rect><rect x="54.73" y="50.16" width="32.2" height="11.19" style="fill:#ebebeb"></rect><polygon points="156.82 435.53 343.18 435.53 347.06 359.06 152.94 359.06 156.82 435.53" style="fill:#ebebeb"></polygon><path d="M334.35,394.07H256.44L255,367.52h81.09Zm-77-.94h76.14l1.58-24.67H256Z" style="fill:#dbdbdb"></path><path d="M332.91,424.61H259.49l-1.2-24h76.12Zm-72.53-.94H332l1.38-22.08H259.28Z" style="fill:#dbdbdb"></path><path d="M302.9,383.67H289.8l-.82-6.4h14.74Zm-12.27-.94h11.44l.58-4.52h-12.6Z" style="fill:#dbdbdb"></path><path d="M302.9,415.83H289.8l-.82-6.41h14.74Zm-12.27-.94h11.44l.58-4.52h-12.6Z" style="fill:#dbdbdb"></path><path d="M242.7,394.07H164.79l-1.46-26.55h81.08Zm-77-.94h76.14l1.58-24.67H164.32Z" style="fill:#dbdbdb"></path><path d="M241.27,424.61H167.84l-1.19-24h76.11Zm-72.53-.94h71.64l1.38-22.08H167.64Z" style="fill:#dbdbdb"></path><path d="M211.25,383.67H198.16l-.83-6.4h14.74ZM199,382.73h11.44l.58-4.52H198.4Z" style="fill:#dbdbdb"></path><path d="M211.25,415.83H198.16l-.83-6.41h14.74ZM199,414.89h11.44l.58-4.52H198.4Z" style="fill:#dbdbdb"></path><polygon points="173.53 435.53 172.36 443.86 170.01 460.6 165.4 460.6 165.4 435.53 173.53 435.53" style="fill:#ebebeb"></polygon><polygon points="173.53 435.53 172.36 443.86 165.4 443.86 165.4 435.53 173.53 435.53" style="fill:#dbdbdb"></polygon><polygon points="326.47 435.53 327.64 443.86 329.99 460.6 334.6 460.6 334.6 435.53 326.47 435.53" style="fill:#ebebeb"></polygon><polygon points="326.47 435.53 327.64 443.86 334.6 443.86 334.6 435.53 326.47 435.53" style="fill:#dbdbdb"></polygon></g><g id="freepik--Form--inject-5"><rect x="80.1" y="58.94" width="359.93" height="253.51" style="fill:#fff"></rect><path d="M440,312.45c-.06.08-360,.1-360.08.16s0-253.62-.1-253.67v-.26h.25s360,.18,360,.15S440,312.37,440,312.45Zm0,0s-.24-254,0-253.4L80.1,59.19l.26-.25s.07,254.16-.26,253.35l359.93.16Z" style="fill:#263238"></path><rect x="80.1" y="58.94" width="359.93" height="9.16" style="fill:#263238"></rect><path d="M98.45,63.51a1.85,1.85,0,1,1-1.84-1.84A1.84,1.84,0,0,1,98.45,63.51Z" style="fill:#FFC727"></path><path d="M106,63.51a1.85,1.85,0,1,1-1.85-1.84A1.85,1.85,0,0,1,106,63.51Z" style="fill:#fff"></path><path d="M113.52,63.51a1.85,1.85,0,1,1-1.84-1.84A1.85,1.85,0,0,1,113.52,63.51Z" style="fill:#455a64"></path><rect x="80.1" y="68.09" width="359.83" height="29.99" style="fill:#FFC727"></rect><path d="M104.59,91.47a.59.59,0,1,1-1.17,0V85.25h0a.59.59,0,0,1,.24-.5.59.59,0,0,1,.81.13l3.46,4.79V85.25a.59.59,0,0,1,.58-.58.6.6,0,0,1,.59.58v6.22a.6.6,0,0,1-.59.59.59.59,0,0,1-.44-.22l0-.06L104.59,87Z" style="fill:#fff"></path><path d="M111,91.47V85.15a.58.58,0,0,1,.59-.59h3.5a.6.6,0,0,1,.59.59.61.61,0,0,1-.59.6h-2.9v2h2.49a.6.6,0,0,1,0,1.19h-2.49v2h2.9a.6.6,0,0,1,0,1.19h-3.47s0,0,0,0h0A.59.59,0,0,1,111,91.47Z" style="fill:#fff"></path><path d="M127.19,85.45l-2.62,6.24a.33.33,0,0,1-.06.1h0l0,.06s0,0,0,0l-.08,0h0s0,0-.09.06h0l-.08,0h-.26l-.07,0h0a.19.19,0,0,1-.1-.06h0l-.08,0s0,0,0,0l0-.06h0s0-.07,0-.1l-1.4-3.32-1.4,3.32,0,.1h0l-.07.06s0,0,0,0l-.06,0h0l-.09.06h0a.12.12,0,0,0-.09,0H120l-.07,0h0l-.1-.06h0s0,0-.07,0,0,0,0,0a.34.34,0,0,1-.06-.06h0s0-.07-.05-.1L117,85.45a.58.58,0,0,1,.33-.76.58.58,0,0,1,.76.31l2.09,5,1.39-3.29a.59.59,0,0,1,.55-.36.62.62,0,0,1,.56.36L124,90l2.09-5a.59.59,0,0,1,.78-.31A.58.58,0,0,1,127.19,85.45Z" style="fill:#fff"></path><path d="M132.33,91.47V85.15a.58.58,0,0,1,.59-.59h3.5a.6.6,0,0,1,0,1.19h-2.9v2H136a.6.6,0,0,1,0,1.19h-2.49v2.57a.6.6,0,0,1-.6.59A.58.58,0,0,1,132.33,91.47Z" style="fill:#fff"></path><path d="M144.5,85.49a3.94,3.94,0,0,1,0,5.42,3.49,3.49,0,0,1-2.56,1.15,3.59,3.59,0,0,1-2.62-1.15,4,4,0,0,1,0-5.42,3.58,3.58,0,0,1,2.62-1.14A3.48,3.48,0,0,1,144.5,85.49Zm-.14,2.71a2.76,2.76,0,0,0-.73-1.87,2.3,2.3,0,0,0-3.42,0,2.71,2.71,0,0,0-.73,1.87,2.67,2.67,0,0,0,.73,1.86,2.26,2.26,0,0,0,3.42,0A2.71,2.71,0,0,0,144.36,88.2Z" style="fill:#fff"></path><path d="M152.65,91.17a.6.6,0,0,1-.38.75,1,1,0,0,1-.23,0h0a.75.75,0,0,1-.42-.12.94.94,0,0,1-.34-.37,2.75,2.75,0,0,1-.23-1.29.86.86,0,0,0-.13-.46,1,1,0,0,0-.32-.31,2.22,2.22,0,0,0-.6-.26h-1.26v2.33a.6.6,0,0,1-.6.59.59.59,0,0,1-.59-.59V85.15a.58.58,0,0,1,.59-.59H150a2.29,2.29,0,0,1,1.46,4.06,1.82,1.82,0,0,1,.38.4,2,2,0,0,1,.35,1.15,2.83,2.83,0,0,0,0,.63A.63.63,0,0,1,152.65,91.17Zm-1.5-4.31A1.11,1.11,0,0,0,150,85.75h-1.31V88H150A1.11,1.11,0,0,0,151.15,86.86Z" style="fill:#fff"></path><path d="M160.83,85.15v6.32a.61.61,0,0,1-.6.59.58.58,0,0,1-.59-.59V87L158.1,89.1a.6.6,0,0,1-.49.25h0a.61.61,0,0,1-.49-.25L155.57,87v4.51a.6.6,0,0,1-1.19,0V85.15a.6.6,0,0,1,.59-.59h0a.59.59,0,0,1,.47.25l2.13,3,2.13-3a.59.59,0,0,1,.48-.25h0A.61.61,0,0,1,160.83,85.15Z" style="fill:#fff"></path><path d="M112.69,116.54v-3.79a.35.35,0,0,1,.35-.35h2.1a.36.36,0,0,1,0,.71H113.4v1.17h1.5a.36.36,0,0,1,.35.36.36.36,0,0,1-.35.36h-1.5v1.54a.36.36,0,0,1-.36.35A.35.35,0,0,1,112.69,116.54Z" style="fill:#263238"></path><path d="M117.2,112.88a.35.35,0,1,1-.69,0v-.14a.35.35,0,0,1,.69,0Zm0,1.16v2.5a.35.35,0,1,1-.69,0V114a.35.35,0,1,1,.69,0Z" style="fill:#263238"></path><path d="M120.28,114a.34.34,0,0,1-.34.34.64.64,0,0,0-.38.12,1.11,1.11,0,0,0-.3.31,2.06,2.06,0,0,0-.26.54v1.22a.35.35,0,0,1-.35.34.34.34,0,0,1-.34-.34V114a.33.33,0,0,1,.34-.33.34.34,0,0,1,.35.33v0a.81.81,0,0,1,.14-.12,1.36,1.36,0,0,1,.8-.25A.32.32,0,0,1,120.28,114Z" style="fill:#263238"></path><path d="M121,116a.34.34,0,0,1,.48,0,1.18,1.18,0,0,0,.71.28.84.84,0,0,0,.44-.12.25.25,0,0,0,.11-.19.08.08,0,0,0,0-.07s0,0-.08-.07a1.28,1.28,0,0,0-.51-.18h0a2.44,2.44,0,0,1-.56-.17,1,1,0,0,1-.44-.37.81.81,0,0,1-.11-.41.9.9,0,0,1,.38-.7,1.32,1.32,0,0,1,.79-.24,1.64,1.64,0,0,1,1,.35.35.35,0,0,1,.1.48.34.34,0,0,1-.47.09,1.09,1.09,0,0,0-.59-.24.65.65,0,0,0-.39.12.18.18,0,0,0-.1.14.11.11,0,0,0,0,.06l.07.06a1.35,1.35,0,0,0,.47.15h0a2.22,2.22,0,0,1,.6.19.94.94,0,0,1,.46.38.76.76,0,0,1,.12.42.91.91,0,0,1-.4.74,1.49,1.49,0,0,1-.84.26,1.89,1.89,0,0,1-1.14-.44A.36.36,0,0,1,121,116Z" style="fill:#263238"></path><path d="M125.83,114a.36.36,0,0,1-.36.36h-.16v1.79a.35.35,0,0,1,.35.36.34.34,0,0,1-.35.35.72.72,0,0,1-.72-.71v-1.79h-.18a.35.35,0,0,1-.35-.36.34.34,0,0,1,.35-.35h.18v-.93a.36.36,0,0,1,.36-.35.35.35,0,0,1,.36.35v.93h.16A.36.36,0,0,1,125.83,114Z" style="fill:#263238"></path><path d="M129.66,116.54a.35.35,0,0,1-.35.35.35.35,0,0,1-.35-.35v-3.73h0a.35.35,0,0,1,.14-.3.37.37,0,0,1,.49.08l2.07,2.87v-2.64a.35.35,0,0,1,.35-.35.35.35,0,0,1,.35.35v3.73a.35.35,0,0,1-.62.22l0,0-2.05-2.85Z" style="fill:#263238"></path><path d="M136.55,115.29v1.26a.34.34,0,0,1-.34.34.35.35,0,0,1-.34-.28,1.4,1.4,0,0,1-.85.28,1.47,1.47,0,0,1-1.09-.47,1.67,1.67,0,0,1,0-2.26,1.46,1.46,0,0,1,1.94-.2.35.35,0,0,1,.34-.28.35.35,0,0,1,.34.35Zm-.68,0a1,1,0,0,0-.25-.66.83.83,0,0,0-.6-.26.79.79,0,0,0-.6.26,1,1,0,0,0,0,1.32.82.82,0,0,0,.6.25.86.86,0,0,0,.6-.25A1,1,0,0,0,135.87,115.29Z" style="fill:#263238"></path><path d="M140.49,115v1.54a.34.34,0,0,1-.34.34.35.35,0,0,1-.35-.34V115a.66.66,0,0,0-1.31,0v1.57h0l0,0v0a.39.39,0,0,1-.32.2h-.07a.33.33,0,0,1-.27-.33V115h0v-1a.34.34,0,0,1,.34-.35.34.34,0,0,1,.31.19,1.35,1.35,0,0,1,1.69.25,1.36,1.36,0,0,1,1-.44A1.34,1.34,0,0,1,142.5,115v1.52a.35.35,0,0,1-.69,0V115a.66.66,0,0,0-.65-.66A.66.66,0,0,0,140.49,115Z" style="fill:#263238"></path><path d="M143.69,115.29a1.59,1.59,0,0,1,1.57-1.61,1.54,1.54,0,0,1,1.55,1.49v0s0,0,0,.06a.31.31,0,0,1-.33.26h-2.05a1,1,0,0,0,.22.42,1,1,0,0,0,.62.29,1.06,1.06,0,0,0,.67-.16.37.37,0,0,1,.48,0,.3.3,0,0,1,0,.42,1.64,1.64,0,0,1-1.15.42A1.6,1.6,0,0,1,143.69,115.29Zm.7-.32h1.82a1.06,1.06,0,0,0-1-.68A.9.9,0,0,0,144.39,115Z" style="fill:#263238"></path><path d="M148.44,113.65,148,114a.25.25,0,0,1-.16.06.22.22,0,0,1-.21-.22.26.26,0,0,1,.15-.2l.56-.24-.56-.25a.22.22,0,0,1-.15-.2.22.22,0,0,1,.37-.15l.48.36-.06-.58a.2.2,0,0,1,.2-.24.2.2,0,0,1,.2.24l-.07.58.49-.36a.25.25,0,0,1,.16-.06.21.21,0,0,1,.06.41l-.56.25.56.24a.24.24,0,0,1,.15.21.21.21,0,0,1-.22.21.24.24,0,0,1-.15-.06l-.49-.36.07.58a.2.2,0,0,1-.2.24.2.2,0,0,1-.2-.24Z" style="fill:#FFC727"></path><rect x="112.02" y="121.41" width="137.93" height="13.69" style="fill:#ebebeb"></rect><path d="M112.69,148.38v-3.79a.34.34,0,0,1,.35-.35h2.1a.35.35,0,0,1,.35.35.36.36,0,0,1-.35.36H113.4v1.18h1.5a.36.36,0,0,1,0,.71h-1.5V148h1.74a.36.36,0,0,1,0,.71H113A.35.35,0,0,1,112.69,148.38Z" style="fill:#263238"></path><path d="M119.11,146.85v1.54a.34.34,0,0,1-.34.34.35.35,0,0,1-.35-.34v-1.54a.66.66,0,0,0-1.31,0v1.59s0,0,0,0v0a.39.39,0,0,1-.32.2h-.07a.35.35,0,0,1-.27-.34v-1.52h0v-1a.34.34,0,0,1,.34-.35.32.32,0,0,1,.3.19,1.4,1.4,0,0,1,.69-.19,1.33,1.33,0,0,1,1,.45,1.31,1.31,0,0,1,1-.45,1.34,1.34,0,0,1,1.33,1.35v1.52a.34.34,0,0,1-.34.34.34.34,0,0,1-.34-.34v-1.52a.66.66,0,0,0-.65-.66A.66.66,0,0,0,119.11,146.85Z" style="fill:#263238"></path><path d="M125.25,147.13v1.26a.34.34,0,0,1-.67.07,1.51,1.51,0,0,1-.86.27,1.49,1.49,0,0,1-1.09-.47,1.67,1.67,0,0,1,0-2.26,1.49,1.49,0,0,1,1.09-.48,1.52,1.52,0,0,1,.86.28.33.33,0,0,1,.33-.28.35.35,0,0,1,.34.35Zm-.68,0a1,1,0,0,0-.25-.66.81.81,0,0,0-.6-.26.79.79,0,0,0-.6.26,1,1,0,0,0-.24.66,1,1,0,0,0,.24.67.82.82,0,0,0,.6.25.84.84,0,0,0,.6-.25A1,1,0,0,0,124.57,147.13Z" style="fill:#263238"></path><path d="M127.21,144.72a.35.35,0,1,1-.69,0v-.14a.35.35,0,0,1,.69,0Zm0,1.16v2.51a.35.35,0,0,1-.69,0v-2.51a.35.35,0,1,1,.69,0Z" style="fill:#263238"></path><path d="M128.58,144.24a.36.36,0,0,1,.36.35v3.79a.36.36,0,0,1-.36.35.36.36,0,0,1-.36-.35v-3.79A.36.36,0,0,1,128.58,144.24Z" style="fill:#263238"></path><path d="M130.52,145.5l-.48.35a.27.27,0,0,1-.16.06.22.22,0,0,1-.21-.21.23.23,0,0,1,.15-.2l.56-.25-.56-.25a.22.22,0,0,1-.15-.2.22.22,0,0,1,.22-.21.21.21,0,0,1,.15.07l.48.35-.06-.57a.21.21,0,0,1,.2-.25.2.2,0,0,1,.2.24l-.07.58.49-.35a.21.21,0,0,1,.16-.07.22.22,0,0,1,.21.21.21.21,0,0,1-.15.2l-.57.25.57.25a.22.22,0,0,1,.15.2.22.22,0,0,1-.22.21.24.24,0,0,1-.15-.06l-.49-.35.07.57a.2.2,0,0,1-.2.24.2.2,0,0,1-.2-.24Z" style="fill:#FFC727"></path><rect x="112.02" y="153.25" width="295.96" height="13.69" style="fill:#ebebeb"></rect><path d="M112.49,177.74a2.35,2.35,0,0,1,2.35-2.32,2.45,2.45,0,0,1,1.49.5.39.39,0,0,1,.06.52.38.38,0,0,1-.51.07,1.61,1.61,0,0,0-1-.35,1.7,1.7,0,0,0-1.15.46,1.57,1.57,0,0,0-.47,1.12,1.55,1.55,0,0,0,.47,1.11,1.65,1.65,0,0,0,1.15.46,1.63,1.63,0,0,0,1-.35.37.37,0,0,1,.45.59,2.45,2.45,0,0,1-1.49.5A2.35,2.35,0,0,1,112.49,177.74Z" style="fill:#263238"></path><path d="M117.8,179.58a1.58,1.58,0,0,1-.44-1.13,1.65,1.65,0,0,1,.44-1.13,1.5,1.5,0,0,1,1.1-.48,1.44,1.44,0,0,1,1.08.48,1.61,1.61,0,0,1,.45,1.13,1.54,1.54,0,0,1-.45,1.13,1.45,1.45,0,0,1-1.08.49A1.51,1.51,0,0,1,117.8,179.58Zm.26-1.13a1,1,0,0,0,.23.68.88.88,0,0,0,.61.24.85.85,0,0,0,.59-.24,1,1,0,0,0,.26-.68.92.92,0,0,0-.26-.67.9.9,0,0,0-.59-.24.93.93,0,0,0-.61.24A1,1,0,0,0,118.06,178.45Z" style="fill:#263238"></path><path d="M124.2,178.17v1.54a.34.34,0,0,1-.34.34.35.35,0,0,1-.34-.34v-1.54a.66.66,0,0,0-.67-.65.64.64,0,0,0-.64.65v1.54a.13.13,0,0,1,0,.06.34.34,0,0,1-.68-.06v-2.53a.34.34,0,0,1,.34-.34.33.33,0,0,1,.31.2,1.23,1.23,0,0,1,.68-.2A1.35,1.35,0,0,1,124.2,178.17Z" style="fill:#263238"></path><path d="M126.9,177.19a.36.36,0,0,1-.36.35h-.16v1.79a.36.36,0,0,1,0,.72.71.71,0,0,1-.71-.72v-1.79h-.19a.35.35,0,0,1-.35-.35.34.34,0,0,1,.35-.35h.19v-.94a.36.36,0,0,1,.36-.35.35.35,0,0,1,.35.35v.94h.16A.36.36,0,0,1,126.9,177.19Z" style="fill:#263238"></path><path d="M130.55,178.45v1.26a.34.34,0,0,1-.34.34.35.35,0,0,1-.34-.28,1.47,1.47,0,0,1-.85.28,1.49,1.49,0,0,1-1.09-.47,1.65,1.65,0,0,1-.44-1.13,1.61,1.61,0,0,1,.44-1.13,1.46,1.46,0,0,1,1.94-.2.35.35,0,0,1,.34-.28.34.34,0,0,1,.34.34Zm-.68,0a1,1,0,0,0-.25-.66.78.78,0,0,0-.6-.27.77.77,0,0,0-.6.27,1,1,0,0,0-.24.66,1,1,0,0,0,.24.66.82.82,0,0,0,.6.25.84.84,0,0,0,.6-.25A1,1,0,0,0,129.87,178.45Z" style="fill:#263238"></path><path d="M131.58,178.45a1.63,1.63,0,0,1,1.64-1.61,1.72,1.72,0,0,1,1,.35.36.36,0,0,1,.07.47.34.34,0,0,1-.48.07,1.07,1.07,0,0,0-.61-.21.93.93,0,1,0,0,1.85,1.07,1.07,0,0,0,.61-.21.35.35,0,0,1,.48.07.37.37,0,0,1-.07.48,1.78,1.78,0,0,1-1,.34A1.63,1.63,0,0,1,131.58,178.45Z" style="fill:#263238"></path><path d="M136.92,177.19a.36.36,0,0,1-.36.35h-.16v1.79a.36.36,0,0,1,0,.72.71.71,0,0,1-.71-.72v-1.79h-.19a.35.35,0,0,1-.35-.35.34.34,0,0,1,.35-.35h.19v-.94a.36.36,0,0,1,.36-.35.35.35,0,0,1,.35.35v.94h.16A.36.36,0,0,1,136.92,177.19Z" style="fill:#263238"></path><path d="M140.75,179.69a.36.36,0,0,1-.35.36.35.35,0,0,1-.35-.36V176h0a.34.34,0,0,1,.14-.3.35.35,0,0,1,.49.08l2.07,2.87V176a.35.35,0,0,1,.7,0v3.73a.36.36,0,0,1-.35.36.33.33,0,0,1-.26-.13s0,0,0,0L140.75,177Z" style="fill:#263238"></path><path d="M146.2,180.05a1.35,1.35,0,0,1-1.34-1.34v-1.53a.34.34,0,1,1,.68,0v1.53a.65.65,0,0,0,.66.66.67.67,0,0,0,.67-.66v-1.53a.34.34,0,0,1,.33-.34.36.36,0,0,1,.35.34v1.53A1.36,1.36,0,0,1,146.2,180.05Z" style="fill:#263238"></path><path d="M151.55,178.17h0v1.53a.35.35,0,0,1-.34.34.36.36,0,0,1-.35-.34v-1.53h0a.66.66,0,0,0-1.31,0v1.59a0,0,0,0,1,0,0v0a.35.35,0,0,1-.32.21h-.06a.35.35,0,0,1-.28-.33v-1.53h0v-1a.34.34,0,0,1,.34-.34.32.32,0,0,1,.31.19,1.38,1.38,0,0,1,.69-.19,1.34,1.34,0,0,1,1,.44,1.29,1.29,0,0,1,1-.44,1.34,1.34,0,0,1,1.34,1.34v1.53a.34.34,0,0,1-.34.34.35.35,0,0,1-.35-.34v-1.53a.66.66,0,0,0-1.31,0Z" style="fill:#263238"></path><path d="M155,178.45h0V175.9a.35.35,0,0,1,.35-.35.35.35,0,0,1,.35.35v1.21a1.51,1.51,0,0,1,.86-.27,1.61,1.61,0,0,1,0,3.21,1.53,1.53,0,0,1-.87-.28.34.34,0,0,1-.34.28.35.35,0,0,1-.35-.35Zm.7,0a.9.9,0,0,0,.26.63.8.8,0,0,0,.6.27.82.82,0,0,0,.6-.27.86.86,0,0,0,.26-.63.87.87,0,0,0-.26-.65.81.81,0,0,0-.6-.26.79.79,0,0,0-.6.26A.91.91,0,0,0,155.67,178.45Z" style="fill:#263238"></path><path d="M159,178.44a1.58,1.58,0,0,1,1.56-1.6,1.53,1.53,0,0,1,1.55,1.49v0a.15.15,0,0,1,0,.06.3.3,0,0,1-.33.25h-2a.81.81,0,0,0,.22.43,1,1,0,0,0,.61.29,1.07,1.07,0,0,0,.67-.17.35.35,0,0,1,.48,0,.29.29,0,0,1,0,.41,1.61,1.61,0,0,1-1.15.43A1.59,1.59,0,0,1,159,178.44Zm.7-.31h1.81a1,1,0,0,0-.95-.68A.88.88,0,0,0,159.69,178.13Z" style="fill:#263238"></path><path d="M165,177.18a.35.35,0,0,1-.35.34.64.64,0,0,0-.38.12,1.11,1.11,0,0,0-.3.31,1.92,1.92,0,0,0-.26.54v1.22a.35.35,0,0,1-.35.34.34.34,0,0,1-.34-.34v-2.53a.34.34,0,0,1,.34-.34.35.35,0,0,1,.35.34v0a.86.86,0,0,1,.14-.13,1.43,1.43,0,0,1,.8-.25A.34.34,0,0,1,165,177.18Z" style="fill:#263238"></path><path d="M166.68,176.81l-.48.35a.28.28,0,0,1-.16.07.22.22,0,0,1-.07-.42l.57-.24-.57-.25a.25.25,0,0,1-.14-.2.22.22,0,0,1,.21-.22.23.23,0,0,1,.16.07l.48.35-.06-.57a.2.2,0,0,1,.2-.24.19.19,0,0,1,.19.23l-.06.58.48-.35a.23.23,0,0,1,.16-.07.21.21,0,0,1,.21.22.23.23,0,0,1-.14.2l-.57.25.57.24a.22.22,0,0,1,.14.21.22.22,0,0,1-.21.21.28.28,0,0,1-.16-.07l-.48-.35.06.57a.2.2,0,0,1-.19.25.2.2,0,0,1-.2-.24Z" style="fill:#FFC727"></path><rect x="112.02" y="184.56" width="295.96" height="13.69" style="fill:#ebebeb"></rect><path d="M115,209.45h-1.56l-.32.84a.35.35,0,0,1-.33.22l-.12,0a.35.35,0,0,1-.21-.46l1.42-3.78a.36.36,0,0,1,.34-.23.38.38,0,0,1,.34.23L116,210a.36.36,0,0,1-.22.46l-.12,0a.36.36,0,0,1-.33-.22Zm-.26-.7-.52-1.39-.52,1.39Z" style="fill:#263238"></path><path d="M119.51,210.16a.35.35,0,0,1-.34.35.34.34,0,0,1-.34-.28,1.59,1.59,0,1,1-.88-2.93,1.47,1.47,0,0,1,.86.27v-1.21a.35.35,0,0,1,.36-.34.34.34,0,0,1,.34.34v2.55h0ZM118,208a.85.85,0,0,0-.6.26.93.93,0,0,0-.26.65.91.91,0,0,0,.26.64.83.83,0,0,0,1.21,0,.9.9,0,0,0,.25-.64.92.92,0,0,0-.25-.65A.85.85,0,0,0,118,208Z" style="fill:#263238"></path><path d="M122.82,207.64a.34.34,0,0,1-.34.34.62.62,0,0,0-.38.12,1,1,0,0,0-.3.31,2.06,2.06,0,0,0-.26.54v1.22a.35.35,0,0,1-.36.34.34.34,0,0,1-.34-.34v-2.53a.34.34,0,0,1,.34-.33.34.34,0,0,1,.36.33v.05a.8.8,0,0,1,.13-.13,1.39,1.39,0,0,1,.81-.25A.33.33,0,0,1,122.82,207.64Z" style="fill:#263238"></path><path d="M123.12,208.91a1.59,1.59,0,0,1,1.56-1.61,1.53,1.53,0,0,1,1.55,1.49v.09a.32.32,0,0,1-.34.26h-2a.82.82,0,0,0,.22.42,1,1,0,0,0,.61.29,1,1,0,0,0,.67-.16.37.37,0,0,1,.48,0,.29.29,0,0,1,0,.42,1.62,1.62,0,0,1-2.71-1.18Zm.7-.32h1.82a1.07,1.07,0,0,0-1-.68A.9.9,0,0,0,123.82,208.59Z" style="fill:#263238"></path><path d="M127.1,209.59a.34.34,0,0,1,.48-.05,1.18,1.18,0,0,0,.71.28.84.84,0,0,0,.44-.12.25.25,0,0,0,.11-.19.08.08,0,0,0,0-.06s0,0-.08-.08a1.28,1.28,0,0,0-.52-.18h0a2.44,2.44,0,0,1-.56-.17,1,1,0,0,1-.44-.37.81.81,0,0,1-.11-.41.88.88,0,0,1,.38-.7,1.32,1.32,0,0,1,.79-.24,1.67,1.67,0,0,1,1,.35.36.36,0,0,1,.1.48.34.34,0,0,1-.47.09,1.09,1.09,0,0,0-.59-.24.62.62,0,0,0-.39.12.18.18,0,0,0-.1.14.11.11,0,0,0,0,.06l.07.06a1.11,1.11,0,0,0,.47.15h0a2.47,2.47,0,0,1,.6.19,1,1,0,0,1,.46.38.86.86,0,0,1,.12.42.92.92,0,0,1-.41.74,1.46,1.46,0,0,1-.83.26,1.89,1.89,0,0,1-1.14-.44A.34.34,0,0,1,127.1,209.59Z" style="fill:#263238"></path><path d="M130.2,209.59a.34.34,0,0,1,.48-.05,1.15,1.15,0,0,0,.7.28.79.79,0,0,0,.44-.12c.09-.08.12-.14.12-.19a.08.08,0,0,0,0-.06.18.18,0,0,0-.09-.08,1.28,1.28,0,0,0-.51-.18h0a2.21,2.21,0,0,1-.55-.17,1.07,1.07,0,0,1-.45-.37.81.81,0,0,1-.11-.41.9.9,0,0,1,.38-.7,1.36,1.36,0,0,1,.79-.24,1.7,1.7,0,0,1,1,.35.37.37,0,0,1,.1.48.35.35,0,0,1-.48.09,1,1,0,0,0-.59-.24.59.59,0,0,0-.38.12c-.09.05-.11.11-.11.14s0,0,0,.06,0,0,.07.06a1.11,1.11,0,0,0,.47.15h0a2.47,2.47,0,0,1,.6.19,1,1,0,0,1,.45.38.76.76,0,0,1,.12.42.91.91,0,0,1-.4.74,1.47,1.47,0,0,1-.84.26,1.92,1.92,0,0,1-1.14-.44A.35.35,0,0,1,130.2,209.59Z" style="fill:#263238"></path><path d="M134.26,207.27l-.49.36a.25.25,0,0,1-.16.06.22.22,0,0,1-.21-.22.26.26,0,0,1,.15-.2l.56-.24-.56-.25a.22.22,0,0,1-.15-.2.22.22,0,0,1,.37-.15l.49.36-.07-.58a.2.2,0,0,1,.2-.24.2.2,0,0,1,.2.24l-.06.58.48-.36a.25.25,0,0,1,.16-.06.21.21,0,0,1,.06.41l-.56.25.56.24a.24.24,0,0,1,.15.21.21.21,0,0,1-.22.21.24.24,0,0,1-.15-.06l-.48-.36.06.58a.2.2,0,0,1-.2.24.2.2,0,0,1-.2-.24Z" style="fill:#FFC727"></path><rect x="112.02" y="215.03" width="295.96" height="13.69" style="fill:#ebebeb"></rect><path d="M270.72,116.54v-3.79a.35.35,0,0,1,.35-.35.36.36,0,0,1,.36.35v3.43h1.74a.36.36,0,0,1,0,.71h-2.1A.35.35,0,0,1,270.72,116.54Z" style="fill:#263238"></path><path d="M277,115.29v1.26a.34.34,0,0,1-.34.34.34.34,0,0,1-.33-.28,1.45,1.45,0,0,1-.86.28,1.5,1.5,0,0,1-1.09-.47,1.67,1.67,0,0,1,0-2.26,1.47,1.47,0,0,1,1.95-.2.34.34,0,0,1,.67.07Zm-.68,0a1,1,0,0,0-.25-.66.79.79,0,0,0-.6-.26.76.76,0,0,0-.59.26,1,1,0,0,0,0,1.32.78.78,0,0,0,.59.25.82.82,0,0,0,.6-.25A1,1,0,0,0,276.3,115.29Z" style="fill:#263238"></path><path d="M278.09,116a.34.34,0,0,1,.48,0,1.13,1.13,0,0,0,.7.28.79.79,0,0,0,.44-.12c.09-.08.12-.14.12-.19a.14.14,0,0,0,0-.07.26.26,0,0,0-.09-.07,1.28,1.28,0,0,0-.51-.18h0a2.44,2.44,0,0,1-.56-.17,1.11,1.11,0,0,1-.44-.37.81.81,0,0,1-.11-.41.9.9,0,0,1,.38-.7,1.36,1.36,0,0,1,.79-.24,1.64,1.64,0,0,1,1,.35.36.36,0,0,1,.11.48.35.35,0,0,1-.48.09,1,1,0,0,0-.59-.24.59.59,0,0,0-.38.12c-.09,0-.11.11-.11.14s0,0,0,.06,0,0,.07.06a1.28,1.28,0,0,0,.47.15h0a2.47,2.47,0,0,1,.6.19,1,1,0,0,1,.45.38.76.76,0,0,1,.12.42.91.91,0,0,1-.4.74,1.47,1.47,0,0,1-.84.26,1.92,1.92,0,0,1-1.14-.44A.35.35,0,0,1,278.09,116Z" style="fill:#263238"></path><path d="M282.94,114a.36.36,0,0,1-.36.36h-.16v1.79a.36.36,0,0,1,.36.36.35.35,0,0,1-.36.35.71.71,0,0,1-.71-.71v-1.79h-.19a.35.35,0,0,1-.35-.36.34.34,0,0,1,.35-.35h.19v-.93a.35.35,0,0,1,.36-.35.34.34,0,0,1,.35.35v.93h.16A.35.35,0,0,1,282.94,114Z" style="fill:#263238"></path><path d="M286.77,116.54a.35.35,0,0,1-.35.35.35.35,0,0,1-.35-.35v-3.73h0a.35.35,0,0,1,.14-.3.37.37,0,0,1,.49.08l2.07,2.87v-2.64a.35.35,0,1,1,.7,0v3.73a.35.35,0,0,1-.35.35.33.33,0,0,1-.26-.13s0,0,0,0l-2.06-2.85Z" style="fill:#263238"></path><path d="M293.66,115.29v1.26a.34.34,0,0,1-.34.34.35.35,0,0,1-.33-.28,1.45,1.45,0,0,1-.86.28,1.5,1.5,0,0,1-1.09-.47,1.7,1.7,0,0,1,0-2.26A1.47,1.47,0,0,1,293,114a.35.35,0,0,1,.33-.28.34.34,0,0,1,.34.35Zm-.68,0a.91.91,0,0,0-.25-.66.79.79,0,0,0-.6-.26.76.76,0,0,0-.59.26,1,1,0,0,0,0,1.32.78.78,0,0,0,.59.25.82.82,0,0,0,.6-.25A.91.91,0,0,0,293,115.29Z" style="fill:#263238"></path><path d="M297.61,115v1.54a.34.34,0,0,1-.34.34.35.35,0,0,1-.35-.34V115a.66.66,0,0,0-.66-.64.65.65,0,0,0-.65.66v1.52a.43.43,0,0,0,0,0h0s0,0,0,0v0a.36.36,0,0,1-.32.2h-.06a.33.33,0,0,1-.28-.33V115h0v-1a.35.35,0,0,1,.34-.35.32.32,0,0,1,.31.19,1.37,1.37,0,0,1,1.7.25,1.32,1.32,0,0,1,1-.44,1.34,1.34,0,0,1,1.34,1.35v1.52a.34.34,0,0,1-.34.34.35.35,0,0,1-.35-.34V115a.65.65,0,0,0-.65-.66A.66.66,0,0,0,297.61,115Z" style="fill:#263238"></path><path d="M300.81,115.29a1.58,1.58,0,0,1,1.56-1.61,1.53,1.53,0,0,1,1.55,1.49v0s0,0,0,.06a.31.31,0,0,1-.33.26h-2a.82.82,0,0,0,.22.42,1,1,0,0,0,.61.29,1.06,1.06,0,0,0,.67-.16.37.37,0,0,1,.48,0,.29.29,0,0,1,0,.42,1.6,1.6,0,0,1-1.15.42A1.58,1.58,0,0,1,300.81,115.29Zm.69-.32h1.82a1,1,0,0,0-.95-.68A.92.92,0,0,0,301.5,115Z" style="fill:#263238"></path><path d="M305.56,113.65l-.48.36a.29.29,0,0,1-.16.06.22.22,0,0,1-.22-.22.26.26,0,0,1,.15-.2l.57-.24-.57-.25a.22.22,0,0,1-.15-.2.23.23,0,0,1,.22-.21.27.27,0,0,1,.16.06l.48.36-.07-.58a.21.21,0,0,1,.2-.24.2.2,0,0,1,.2.24l-.06.58.48-.36a.27.27,0,0,1,.16-.06.21.21,0,0,1,.21.21.22.22,0,0,1-.15.2l-.56.25.56.24a.24.24,0,0,1,.15.21.21.21,0,0,1-.22.21.26.26,0,0,1-.15-.06l-.48-.36.06.58a.2.2,0,1,1-.4,0Z" style="fill:#FFC727"></path><rect x="270.05" y="121.41" width="137.93" height="13.69" style="fill:#ebebeb"></rect><path d="M112.49,239.37a2.35,2.35,0,0,1,2.35-2.31,2.39,2.39,0,0,1,1.49.5.37.37,0,0,1,.06.51.37.37,0,0,1-.51.07,1.61,1.61,0,0,0-1-.35,1.7,1.7,0,0,0-1.15.46,1.57,1.57,0,0,0,0,2.24,1.7,1.7,0,0,0,1.15.46,1.59,1.59,0,0,0,1-.36.39.39,0,0,1,.51.08.37.37,0,0,1-.06.51,2.45,2.45,0,0,1-1.49.5A2.34,2.34,0,0,1,112.49,239.37Z" style="fill:#263238"></path><path d="M118.27,237.67a.35.35,0,0,1-.35.35.35.35,0,0,1-.35-.35v-.14a.35.35,0,0,1,.35-.35.35.35,0,0,1,.35.35Zm0,1.16v2.5a.34.34,0,0,1-.35.35.35.35,0,0,1-.35-.35v-2.5a.34.34,0,0,1,.35-.35A.34.34,0,0,1,118.27,238.83Z" style="fill:#263238"></path><path d="M120.82,238.82a.37.37,0,0,1-.36.36h-.16V241a.35.35,0,0,1,.35.36.34.34,0,0,1-.35.35.71.71,0,0,1-.71-.71v-1.79h-.19a.36.36,0,0,1-.35-.36.34.34,0,0,1,.35-.35h.19v-.93a.36.36,0,1,1,.71,0v.93h.16A.36.36,0,0,1,120.82,238.82Z" style="fill:#263238"></path><path d="M124.36,238.81v2.43a1.52,1.52,0,0,1-1.53,1.53,1.46,1.46,0,0,1-.66-.16.34.34,0,0,1-.17-.46.36.36,0,0,1,.46-.14.81.81,0,0,0,.37.09.83.83,0,0,0,.8-.58,1.28,1.28,0,0,1-.61.15,1.35,1.35,0,0,1-1.34-1.35v-1.51a.34.34,0,0,1,.33-.34.33.33,0,0,1,.34.34v1.51a.66.66,0,0,0,.67.66.65.65,0,0,0,.66-.66v-1.51a.33.33,0,0,1,.34-.34A.34.34,0,0,1,124.36,238.81Z" style="fill:#263238"></path><path d="M126.46,238.44l-.48.36a.31.31,0,0,1-.16.06.22.22,0,0,1-.21-.22.26.26,0,0,1,.15-.2l.56-.24-.56-.25a.22.22,0,0,1-.15-.2.21.21,0,0,1,.22-.21.22.22,0,0,1,.15.06l.48.36-.06-.58a.2.2,0,0,1,.2-.24.2.2,0,0,1,.2.24l-.07.58.49-.36a.25.25,0,0,1,.16-.06.21.21,0,0,1,.21.21.22.22,0,0,1-.15.2l-.56.25.56.24a.24.24,0,0,1,.15.21.22.22,0,0,1-.22.21.32.32,0,0,1-.15-.06l-.49-.36.07.57a.21.21,0,0,1-.2.25.2.2,0,0,1-.2-.24Z" style="fill:#FFC727"></path><rect x="112.02" y="246.2" width="137.93" height="13.69" style="fill:#ebebeb"></rect><path d="M273.92,237.75,271.56,241h2.07a.36.36,0,0,1,.36.36.35.35,0,0,1-.36.35h-2.9l0,0h-.07l0,0,0,0,0,0a0,0,0,0,0,0,0s0,0,0,0,0,0,0,0,0,0,0,0v-.06h0v-.08s0,0,0,0v0s0,0,0,0,0,0,0,0h0l2.35-3.22h-2.07a.36.36,0,0,1-.35-.36.35.35,0,0,1,.35-.36h2.91s0,0,0,0l0,0h0l0,0,0,0,0,0,0,0,0,0v0a.1.1,0,0,0,0,0,0,0,0,0,1,0,0,.08.08,0,0,1,0,0v.07s0,0,0,0,0,0,0,0,0,0,0,0h0a.05.05,0,0,1,0,0Z" style="fill:#263238"></path><path d="M275.05,237.54a.35.35,0,0,1,.35-.36.36.36,0,0,1,.36.36v3.79a.36.36,0,0,1-.36.35.34.34,0,0,1-.35-.35Z" style="fill:#263238"></path><path d="M278.47,239.93h-.79v1.4a.36.36,0,0,1-.36.35.36.36,0,0,1-.36-.35v-3.79a.36.36,0,0,1,.36-.36h1.15a1.38,1.38,0,1,1,0,2.75Zm-.79-.71h.79a.66.66,0,1,0,0-1.32h-.79Z" style="fill:#263238"></path><path d="M282.43,239.37a2.38,2.38,0,0,1,3.84-1.81.38.38,0,0,1,.07.51.37.37,0,0,1-.51.07,1.63,1.63,0,0,0-1-.35,1.7,1.7,0,0,0-1.15.46,1.57,1.57,0,0,0,0,2.24,1.7,1.7,0,0,0,1.15.46,1.59,1.59,0,0,0,1-.36.39.39,0,0,1,.51.08.37.37,0,0,1-.07.51,2.4,2.4,0,0,1-1.48.5A2.35,2.35,0,0,1,282.43,239.37Z" style="fill:#263238"></path><path d="M287.75,241.21a1.59,1.59,0,0,1-.45-1.13,1.63,1.63,0,0,1,.45-1.12,1.47,1.47,0,0,1,1.1-.49,1.38,1.38,0,0,1,1.07.49,1.59,1.59,0,0,1,.45,1.12,1.54,1.54,0,0,1-.45,1.13,1.41,1.41,0,0,1-1.07.49A1.51,1.51,0,0,1,287.75,241.21Zm.25-1.13a1,1,0,0,0,.24.68.84.84,0,0,0,.61.24.81.81,0,0,0,.59-.24,1,1,0,0,0,.25-.68,1,1,0,0,0-.25-.67.9.9,0,0,0-.59-.24.93.93,0,0,0-.61.24A1,1,0,0,0,288,240.08Z" style="fill:#263238"></path><path d="M294.38,241.33a.35.35,0,0,1-.35.35.34.34,0,0,1-.34-.28,1.56,1.56,0,0,1-.88.28,1.61,1.61,0,0,1,0-3.21,1.47,1.47,0,0,1,.86.27v-1.21a.36.36,0,0,1,.71,0v2.54h0Zm-1.57-2.16a.85.85,0,0,0-.6.26.91.91,0,0,0-.26.65.93.93,0,0,0,.26.64.83.83,0,0,0,1.21,0,.92.92,0,0,0,.25-.64.91.91,0,0,0-.25-.65A.85.85,0,0,0,292.81,239.17Z" style="fill:#263238"></path><path d="M295.38,240.07a1.59,1.59,0,0,1,1.57-1.6A1.53,1.53,0,0,1,298.5,240v0s0,0,0,.06a.31.31,0,0,1-.33.26h-2a.88.88,0,0,0,.21.42,1,1,0,0,0,1.29.13.37.37,0,0,1,.48,0,.3.3,0,0,1,0,.42,1.65,1.65,0,0,1-1.15.42A1.6,1.6,0,0,1,295.38,240.07Zm.7-.31h1.82a1,1,0,0,0-.95-.68A.91.91,0,0,0,296.08,239.76Z" style="fill:#263238"></path><path d="M300.14,238.44l-.48.36a.4.4,0,0,1-.16.06.22.22,0,0,1-.22-.22.26.26,0,0,1,.15-.2l.57-.24-.57-.25a.22.22,0,0,1-.15-.2.22.22,0,0,1,.22-.21.27.27,0,0,1,.16.06l.48.36-.07-.58a.2.2,0,0,1,.2-.24.2.2,0,0,1,.2.24l-.06.58.48-.36a.27.27,0,0,1,.16-.06.21.21,0,0,1,.21.21.22.22,0,0,1-.15.2l-.56.25.56.24a.24.24,0,0,1,.15.21.22.22,0,0,1-.22.21.36.36,0,0,1-.15-.06l-.48-.36.06.57a.21.21,0,0,1-.2.25.2.2,0,0,1-.2-.24Z" style="fill:#FFC727"></path><rect x="270.05" y="246.2" width="137.93" height="13.69" style="fill:#ebebeb"></rect><path d="M114.19,271h-.79v1.39a.36.36,0,1,1-.71,0v-3.79a.35.35,0,0,1,.35-.35h1.15a1.38,1.38,0,1,1,0,2.75Zm-.79-.71h.79a.67.67,0,1,0,0-1.33h-.79Z" style="fill:#263238"></path><path d="M119.08,271.1v1.26a.35.35,0,0,1-.34.34.36.36,0,0,1-.34-.28,1.47,1.47,0,0,1-1.94-.19,1.65,1.65,0,0,1-.44-1.13,1.6,1.6,0,0,1,.44-1.13,1.44,1.44,0,0,1,1.09-.48,1.4,1.4,0,0,1,.85.28.35.35,0,0,1,.34-.28.34.34,0,0,1,.34.34Zm-.68,0a1,1,0,0,0-.25-.66.8.8,0,0,0-.6-.27.77.77,0,0,0-.6.27,1,1,0,0,0-.24.66,1,1,0,0,0,.24.66.82.82,0,0,0,.6.25.86.86,0,0,0,.6-.25A1,1,0,0,0,118.4,271.1Z" style="fill:#263238"></path><path d="M120.18,271.78a.32.32,0,0,1,.48,0,1.18,1.18,0,0,0,.71.28,1,1,0,0,0,.44-.12.25.25,0,0,0,.11-.2s0,0,0-.06,0-.05-.08-.08a1.7,1.7,0,0,0-.51-.18h0a3.05,3.05,0,0,1-.56-.16,1.07,1.07,0,0,1-.44-.38.75.75,0,0,1-.11-.4.91.91,0,0,1,.38-.71,1.39,1.39,0,0,1,.79-.23,1.64,1.64,0,0,1,1,.35.34.34,0,0,1,.1.47.33.33,0,0,1-.47.09,1.15,1.15,0,0,0-.59-.23.72.72,0,0,0-.39.11.21.21,0,0,0-.1.15.09.09,0,0,0,0,.05.23.23,0,0,0,.07.06,1.32,1.32,0,0,0,.47.16h0a2.22,2.22,0,0,1,.6.19,1,1,0,0,1,.46.38.81.81,0,0,1,.12.42.93.93,0,0,1-.4.75,1.49,1.49,0,0,1-.84.26,1.84,1.84,0,0,1-1.14-.45A.34.34,0,0,1,120.18,271.78Z" style="fill:#263238"></path><path d="M123.28,271.78a.32.32,0,0,1,.48,0,1.18,1.18,0,0,0,.71.28.88.88,0,0,0,.43-.12c.09-.08.12-.14.12-.2a.11.11,0,0,0,0-.06.19.19,0,0,0-.08-.08,1.78,1.78,0,0,0-.52-.18h0a2.84,2.84,0,0,1-.56-.16,1.1,1.1,0,0,1-.45-.38.74.74,0,0,1-.1-.4.9.9,0,0,1,.37-.71,1.43,1.43,0,0,1,.79-.23,1.68,1.68,0,0,1,1,.35.35.35,0,0,1,.1.47.33.33,0,0,1-.47.09,1.15,1.15,0,0,0-.6-.23.66.66,0,0,0-.38.11.18.18,0,0,0-.1.15.09.09,0,0,0,0,.05s0,0,.07.06a1.25,1.25,0,0,0,.47.16h0a2.47,2.47,0,0,1,.6.19,1,1,0,0,1,.45.38.83.83,0,0,1,.13.42.94.94,0,0,1-.41.75,1.46,1.46,0,0,1-.83.26,1.89,1.89,0,0,1-1.15-.45A.33.33,0,0,1,123.28,271.78Z" style="fill:#263238"></path><path d="M130.63,270l-1.06,2.49,0,.05h0l0,0h0a.05.05,0,0,1,0,0v0l-.05,0h-.27a.1.1,0,0,1-.05,0h0s0,0,0,0h0l0,0h0s0,0,0-.05l-.47-1.11-.46,1.11a.09.09,0,0,1,0,.05h0l0,0h0l0,0-.06,0h-.27l-.06,0h0l0,0h0l0,0h0l0-.05L126.35,270a.33.33,0,0,1,.18-.44.32.32,0,0,1,.43.19l.76,1.73.45-1.08a.33.33,0,0,1,.31-.2.34.34,0,0,1,.32.2l.45,1.08.76-1.73a.32.32,0,0,1,.43-.19A.34.34,0,0,1,130.63,270Z" style="fill:#263238"></path><path d="M132.16,272.23a1.64,1.64,0,0,1-.44-1.13,1.7,1.7,0,0,1,.44-1.13,1.5,1.5,0,0,1,1.11-.48,1.41,1.41,0,0,1,1.07.48,1.61,1.61,0,0,1,.45,1.13,1.56,1.56,0,0,1-.45,1.13,1.42,1.42,0,0,1-1.07.49A1.51,1.51,0,0,1,132.16,272.23Zm.26-1.13a1,1,0,0,0,.23.68.89.89,0,0,0,.62.24.87.87,0,0,0,.59-.24,1,1,0,0,0,.25-.68,1,1,0,0,0-.25-.67.92.92,0,0,0-.59-.24.93.93,0,0,0-.62.24A1,1,0,0,0,132.42,271.1Z" style="fill:#263238"></path><path d="M137.73,269.83a.35.35,0,0,1-.34.34.54.54,0,0,0-.38.12.81.81,0,0,0-.3.31,1.92,1.92,0,0,0-.26.54v1.22a.35.35,0,0,1-.36.34.35.35,0,0,1-.34-.34v-2.53a.34.34,0,0,1,.34-.34.35.35,0,0,1,.36.34v0a.8.8,0,0,1,.13-.13,1.47,1.47,0,0,1,.81-.25A.34.34,0,0,1,137.73,269.83Z" style="fill:#263238"></path><path d="M141.32,272.35a.35.35,0,0,1-.35.35.36.36,0,0,1-.34-.28,1.53,1.53,0,0,1-.87.28,1.61,1.61,0,0,1,0-3.21,1.56,1.56,0,0,1,.86.26v-1.2a.35.35,0,0,1,.35-.35.35.35,0,0,1,.35.35v2.54h0Zm-1.56-2.16a.81.81,0,0,0-.6.26.91.91,0,0,0-.26.65.9.9,0,0,0,.26.63.82.82,0,0,0,.6.27.8.8,0,0,0,.6-.27.9.9,0,0,0,.26-.63.91.91,0,0,0-.26-.65A.79.79,0,0,0,139.76,270.19Z" style="fill:#263238"></path><path d="M143.4,269.46l-.49.35a.26.26,0,0,1-.16.07.23.23,0,0,1-.21-.22.23.23,0,0,1,.15-.2l.56-.24-.56-.26a.21.21,0,0,1-.15-.19.22.22,0,0,1,.22-.22.19.19,0,0,1,.15.07l.49.35-.07-.57a.2.2,0,0,1,.2-.24.19.19,0,0,1,.2.23l-.06.58.48-.35a.21.21,0,0,1,.16-.07.22.22,0,0,1,.21.22.2.2,0,0,1-.15.19l-.56.26.56.24a.22.22,0,0,1,.15.2.22.22,0,0,1-.22.22.26.26,0,0,1-.15-.07l-.48-.35.06.57a.2.2,0,0,1-.2.24.19.19,0,0,1-.2-.23Z" style="fill:#FFC727"></path><rect x="112.02" y="277.21" width="137.93" height="13.69" style="fill:#ebebeb"></rect><path d="M408.48,291.4H345.61V276.71h62.87Zm-61.87-1h60.87V277.71H346.61Z" style="fill:#FFC727"></path><rect x="270.32" y="277.21" width="61.87" height="13.69" style="fill:#FFC727"></rect><path d="M290.32,284.7a.32.32,0,0,1,.46,0,2.12,2.12,0,0,0,1.23.49,1.38,1.38,0,0,0,.8-.23.59.59,0,0,0,.28-.47.34.34,0,0,0-.06-.2.49.49,0,0,0-.19-.19,2.41,2.41,0,0,0-.88-.31h0a3,3,0,0,1-.83-.25,1.33,1.33,0,0,1-.6-.5,1,1,0,0,1-.15-.52,1.18,1.18,0,0,1,.52-.94,1.87,1.87,0,0,1,1.11-.34,2.53,2.53,0,0,1,1.4.51.34.34,0,0,1,.09.46.32.32,0,0,1-.46.09,1.93,1.93,0,0,0-1-.41,1.21,1.21,0,0,0-.72.22.52.52,0,0,0-.24.41.37.37,0,0,0,0,.18.53.53,0,0,0,.17.16,2.27,2.27,0,0,0,.81.29h0a3.31,3.31,0,0,1,.89.27,1.45,1.45,0,0,1,.64.53,1.06,1.06,0,0,1,.15.54,1.25,1.25,0,0,1-.55,1,2,2,0,0,1-1.19.37,2.77,2.77,0,0,1-1.64-.65A.34.34,0,0,1,290.32,284.7Z" style="fill:#fff"></path><path d="M295.94,285.82a1.34,1.34,0,0,1-1.33-1.33V283a.34.34,0,0,1,.68,0v1.54a.65.65,0,0,0,.65.65.67.67,0,0,0,.68-.65V283a.34.34,0,0,1,.33-.34.36.36,0,0,1,.35.34v1.54A1.36,1.36,0,0,1,295.94,285.82Z" style="fill:#fff"></path><path d="M298.61,284.22h0v-2.55a.35.35,0,0,1,.35-.34.35.35,0,0,1,.35.34v1.21a1.49,1.49,0,0,1,.86-.27,1.61,1.61,0,1,1-.87,2.94.35.35,0,0,1-.34.27.35.35,0,0,1-.35-.35Zm.7,0a.91.91,0,0,0,.26.64.79.79,0,0,0,.6.26.81.81,0,0,0,.6-.26.91.91,0,0,0,.26-.64.93.93,0,0,0-.26-.65.85.85,0,0,0-.6-.26.83.83,0,0,0-.6.26A.93.93,0,0,0,299.31,284.22Z" style="fill:#fff"></path><path d="M305.53,283.94v1.54a.34.34,0,0,1-.34.34.34.34,0,0,1-.34-.34v-1.54a.67.67,0,0,0-.67-.64.65.65,0,0,0-.64.66v1.52a.43.43,0,0,0,0,0v0l0,0v0a.39.39,0,0,1-.32.2h-.07a.35.35,0,0,1-.27-.34V284h0v-1a.34.34,0,0,1,.34-.35.33.33,0,0,1,.31.19,1.35,1.35,0,0,1,1.69.25,1.36,1.36,0,0,1,1-.44,1.34,1.34,0,0,1,1.34,1.35v1.52a.35.35,0,0,1-.69,0V284a.66.66,0,0,0-.65-.66A.67.67,0,0,0,305.53,283.94Z" style="fill:#fff"></path><path d="M309.66,281.81a.35.35,0,0,1-.35.35.35.35,0,0,1-.35-.35v-.14a.35.35,0,0,1,.35-.34.34.34,0,0,1,.35.34Zm0,1.16v2.5a.34.34,0,0,1-.35.35.35.35,0,0,1-.35-.35V283a.35.35,0,0,1,.35-.35A.34.34,0,0,1,309.66,283Z" style="fill:#fff"></path><path d="M312.21,283a.36.36,0,0,1-.36.36h-.16v1.79a.35.35,0,0,1,.35.36.34.34,0,0,1-.35.35.72.72,0,0,1-.72-.71v-1.79h-.18a.36.36,0,1,1,0-.71H311v-.93a.36.36,0,0,1,.72,0v.93h.16A.36.36,0,0,1,312.21,283Z" style="fill:#fff"></path><path d="M366.57,283.51a2.38,2.38,0,0,1,3.84-1.81.37.37,0,1,1-.45.58,1.59,1.59,0,0,0-1-.35,1.74,1.74,0,0,0-1.16.46,1.59,1.59,0,0,0-.47,1.12,1.55,1.55,0,0,0,.47,1.12,1.74,1.74,0,0,0,1.16.46,1.6,1.6,0,0,0,1-.35.39.39,0,0,1,.52.07.37.37,0,0,1-.07.51,2.38,2.38,0,0,1-3.84-1.81Z" style="fill:#FFC727"></path><path d="M374.37,284.22v1.26a.34.34,0,0,1-.34.34.35.35,0,0,1-.34-.27,1.46,1.46,0,0,1-.85.27,1.49,1.49,0,0,1-1.09-.47,1.67,1.67,0,0,1,0-2.26,1.49,1.49,0,0,1,1.09-.48,1.47,1.47,0,0,1,.85.28.35.35,0,0,1,.34-.28.35.35,0,0,1,.34.35Zm-.68,0a1,1,0,0,0-.25-.66.81.81,0,0,0-.6-.26.79.79,0,0,0-.6.26,1,1,0,0,0,0,1.32.82.82,0,0,0,.6.25.84.84,0,0,0,.6-.25A1,1,0,0,0,373.69,284.22Z" style="fill:#FFC727"></path><path d="M378.24,284v1.53a.34.34,0,0,1-.33.34.34.34,0,0,1-.34-.34V284a.66.66,0,0,0-.67-.65.64.64,0,0,0-.64.65v1.53a.2.2,0,0,1,0,.07.36.36,0,0,1-.34.27.34.34,0,0,1-.35-.34V283a.35.35,0,0,1,.35-.34.35.35,0,0,1,.31.2,1.29,1.29,0,0,1,.68-.2A1.34,1.34,0,0,1,378.24,284Z" style="fill:#FFC727"></path><path d="M379.28,284.22a1.63,1.63,0,0,1,1.63-1.61,1.72,1.72,0,0,1,1,.35.36.36,0,0,1,.07.48.34.34,0,0,1-.48.06,1,1,0,0,0-.61-.2.92.92,0,1,0,0,1.84,1.06,1.06,0,0,0,.61-.2.34.34,0,0,1,.48.07.35.35,0,0,1-.07.47,1.78,1.78,0,0,1-1,.34A1.62,1.62,0,0,1,379.28,284.22Z" style="fill:#FFC727"></path><path d="M382.85,284.22a1.59,1.59,0,0,1,1.57-1.61A1.53,1.53,0,0,1,386,284.1v.09a.31.31,0,0,1-.34.26h-2a.78.78,0,0,0,.22.42,1,1,0,0,0,.62.29,1,1,0,0,0,.66-.16.38.38,0,0,1,.49,0,.31.31,0,0,1,0,.42,1.64,1.64,0,0,1-1.15.42A1.59,1.59,0,0,1,382.85,284.22Zm.7-.32h1.82a1.07,1.07,0,0,0-.95-.68A.9.9,0,0,0,383.55,283.9Z" style="fill:#FFC727"></path><path d="M387.38,281.33a.36.36,0,0,1,.36.35v3.79a.36.36,0,0,1-.71,0v-3.79A.35.35,0,0,1,387.38,281.33Z" style="fill:#FFC727"></path></g><g id="freepik--Floor--inject-5"><path d="M52.16,460.6c126.75-.61,268.93-.62,395.68,0-126.75.62-268.93.61-395.68,0Z" style="fill:#263238"></path></g><g id="freepik--Character--inject-5"><path d="M310.65,460.59c2.44.8,72.18-.09,74.81-1.82,1-.63,1.48-10.8,1.68-23.1v-.39c.05-2.53.09-5.15.09-7.79,0-.37,0-.73,0-1.09l-3.37-36.18-46.65.45,4.6,35.84.05,1.42.28,7.42,0,.76s-26.55,12.28-29.24,14.48S308.2,459.82,310.65,460.59Z" style="fill:#ad6359"></path><path d="M310.65,460.59c2.44.8,72.18-.09,74.81-1.82,1-.63,1.48-10.8,1.68-23.1v-.39c.05-2.53.09-5.15.09-7.79,0-.37,0-.73,0-1.09l-45.42.11.05,1.42.28,7.42,0,.76s-26.55,12.28-29.24,14.48S308.2,459.82,310.65,460.59Z" style="fill:#ebebeb"></path><path d="M310.64,460.59c1.26.41,20.21.37,38.73,0,3.72-.08,7.42-.16,10.95-.26,13.21-.36,24.12-.9,25.14-1.56s1.46-10.52,1.66-22.59c0-.17,0-.34,0-.51s0-.27,0-.4h-.06l-44.94.08,0,.76s-26.54,12.28-29.23,14.47S308.2,459.81,310.64,460.59Z" style="fill:#FFC727"></path><path d="M311.4,457.88c11.75-.44,59.19-1.1,70.84-.64.1,0,.1.07,0,.08-11.63.69-59.08,1-70.84.75C311.16,458.07,311.15,457.89,311.4,457.88Z" style="fill:#263238"></path><path d="M337.14,435.54c4.62-.92,10.28-.28,13.86,3,.14.13,0,.32-.19.28a65.19,65.19,0,0,0-13.64-2.66A.3.3,0,0,1,337.14,435.54Z" style="fill:#263238"></path><path d="M333.83,437.6c4.61-.92,10.28-.29,13.86,3,.14.13-.05.33-.2.28a65.06,65.06,0,0,0-13.64-2.66A.29.29,0,0,1,333.83,437.6Z" style="fill:#263238"></path><path d="M330.52,439.65c4.61-.92,10.28-.28,13.85,3,.14.13,0,.32-.19.28a64.55,64.55,0,0,0-13.64-2.66A.3.3,0,0,1,330.52,439.65Z" style="fill:#263238"></path><path d="M349.37,460.59c3.72-.08,7.42-.16,10.95-.26,13.21-.36,24.12-.9,25.14-1.56s1.46-10.52,1.66-22.59c0-.17,0-.34,0-.51s0-.27,0-.4h-.06C380.94,439.59,359.23,454,349.37,460.59Z" style="opacity:0.1"></path><path d="M339.46,435.51h50.23S379.6,318.21,380,316.16c.51-2.62,3.48-14.49,7.43-30,1.23-4.86,2.57-10.06,4-15.46,3.74-14.59,7.88-30.54,11.47-44.42,5.41-20.79,9.62-31.5,9.62-31.5H369.91s-35,100.18-36.38,120.88C332.31,333.71,339.46,435.51,339.46,435.51Z" style="fill:#263238"></path><path d="M341.69,426.94c7.67-.16,5.47-.22,13.14-.3,3.75,0,28.42-.24,31.93.34.08,0,.08.14,0,.16-3.51.58-28.18.36-31.93.32-7.67-.08-5.47-.14-13.14-.3A.11.11,0,1,1,341.69,426.94Z" style="fill:#37474f"></path><path d="M370.55,309c1.65-7.26,4.11-14.37,6.25-21.5q6.54-21.72,13.15-43.41c2.2-7.23,12.41-34.29,13.42-37.89.41-1.46.63-.66.11,1.2-1.06,3.75-18.51,57.39-22.92,72.09l-6.66,22.1a89.47,89.47,0,0,0-2.71,10.69,49.19,49.19,0,0,0-.45,11.44c.48,7.68,1.37,15.36,2.08,23s1.41,15.37,2.12,23q2.13,22.94,4.2,45.87c.17,1.94.34,3.87.49,5.81.05.65-.93.6-1,0-1.65-15.12-2.91-30.29-4.33-45.43s-2.82-30.13-4.22-45.2c-.35-3.78-.76-7.57-.76-11.37A47.15,47.15,0,0,1,370.55,309Z" style="fill:#37474f"></path><path d="M374.74,194.77c2.95,22.86,8.58,60.29,12.68,91.39,9.6-37.68,25.05-91.38,25.05-91.38Z" style="fill:#37474f"></path><path d="M362.59,461.28c2.44.8,72.18.16,74.82-1.55,1-.63,1.51-10.8,1.76-23.1,0-.13,0-.26,0-.39.05-2.53.1-5.14.11-7.79,0-.36,0-.73,0-1.09.16-17.76-1.11-36.18-1.11-36.18l-45.59.29,1.27,35.84.05,1.42.25,7.42,0,.76s-26.58,12.19-29.29,14.37S360.14,460.49,362.59,461.28Z" style="fill:#ad6359"></path><path d="M362.59,461.28c2.44.8,72.18.16,74.82-1.55,1-.63,1.51-10.8,1.76-23.1,0-.13,0-.26,0-.39.05-2.53.1-5.14.11-7.79,0-.36,0-.73,0-1.09l-45.43-.05.05,1.42.25,7.42,0,.76s-26.58,12.19-29.29,14.37S360.14,460.49,362.59,461.28Z" style="fill:#ebebeb"></path><path d="M362.59,461.28c2.44.8,72.18.16,74.82-1.55,1-.63,1.51-10.8,1.76-23.1,0-.13,0-.26,0-.39l-45-.09,0,.76s-26.58,12.19-29.29,14.37S360.14,460.49,362.59,461.28Z" style="fill:#FFC727"></path><path d="M363.35,458.57c11.75-.4,59.2-.88,70.84-.38.1,0,.1.07,0,.07-11.64.65-59.08.75-70.84.5C363.1,458.75,363.1,458.58,363.35,458.57Z" style="fill:#263238"></path><path d="M389.17,436.32c4.62-.9,10.28-.24,13.85,3,.14.13,0,.32-.2.28a64.33,64.33,0,0,0-13.62-2.71A.3.3,0,0,1,389.17,436.32Z" style="fill:#263238"></path><path d="M385.85,438.37c4.62-.91,10.28-.25,13.85,3,.14.13-.05.32-.2.28A64.93,64.93,0,0,0,385.87,439,.29.29,0,0,1,385.85,438.37Z" style="fill:#263238"></path><path d="M382.53,440.41c4.62-.91,10.28-.25,13.85,3,.14.12-.05.32-.2.27A64.93,64.93,0,0,0,382.55,441,.29.29,0,0,1,382.53,440.41Z" style="fill:#263238"></path><path d="M370.2,194.77a165.19,165.19,0,0,0,5.63,31.06c.38,1.33.78,2.64,1.22,3.9A127.42,127.42,0,0,1,388.23,236s.49,16.39,1,34.66c.54,20.43,1.1,43.22,1,48.05-.43,18.08,2.24,117.5,2.24,117.5l50.21.22s-9.05-111-9-117.66c.1-10.65-2.65-47.63-4.6-81.95-.16-2.88,1.57-9.16,1.41-11.66-1-15.82-3.34-30.42-3.34-30.42Z" style="fill:#263238"></path><path d="M394.14,427.32c7.67-.12,5.47-.2,13.14-.23,3.76,0,28.43-.13,31.93.47a.08.08,0,0,1,0,.15c-3.51.57-28.18.24-31.93.19-7.67-.11-5.47-.16-13.14-.35C394,427.54,394,427.32,394.14,427.32Z" style="fill:#37474f"></path><path d="M418.83,220.26c-1.24-.32-2.56-.42-3.82-.62-1-.16-2-.34-3-.56a13.28,13.28,0,0,1-5.36-2.26c-2.5-2-5.38-11.87-5.73-12.5-.6-1.09-.42-.08-.42,0,0,1.15,2.27,9.78,3.29,11.4,1.86,3,5.2,4.16,8.53,4.58,1,.12,1.91.19,2.87.24a20.13,20.13,0,0,0,3.64,0A.17.17,0,0,0,418.83,220.26Z" style="fill:#37474f"></path><path d="M363.25,218.32a9.24,9.24,0,0,1,1.71-.62,13,13,0,0,0,1.36-.56,5.32,5.32,0,0,0,2.4-2.26c1.12-2,2.41-11.87,2.57-12.5.27-1.09.18-.08.18,0A110.77,110.77,0,0,1,370,213.8c-.83,3-2.33,4.16-3.82,4.58a9.48,9.48,0,0,1-1.29.25,4.21,4.21,0,0,1-1.62,0C363.18,218.63,363.16,218.37,363.25,218.32Z" style="fill:#37474f"></path><path d="M377.21,230a89.51,89.51,0,0,1,14.14,6.59.16.16,0,0,1-.13.29c-4.76-2-9.62-4-14.26-6.31A.31.31,0,0,1,377.21,230Z" style="fill:#37474f"></path><path d="M375.78,197.34c0-.16.3-.2.3,0a157.31,157.31,0,0,0,.8,15.91c.22,2.46,2.19,16,6.45,15,.71-.16,1.07-.87,1.19-1.94a17.51,17.51,0,0,0-.57-4.16c-.47-2.84-.85-5.69-1.09-8.55a77.56,77.56,0,0,1,.17-16.05.14.14,0,0,1,.27,0,147.76,147.76,0,0,0,1.3,22.15c.53,3.52,2.31,8.83-1.38,9.38s-6.19-8.35-6.65-10.78A81.07,81.07,0,0,1,375.78,197.34Z" style="fill:#37474f"></path><path d="M383.22,228.63a22.64,22.64,0,0,1,.95,2.81,6.35,6.35,0,0,1,.4,2.31.16.16,0,0,1-.29.06,8.11,8.11,0,0,1-1-2.25c-.33-.87-.67-1.73-1-2.61A.48.48,0,0,1,383.22,228.63Z" style="fill:#37474f"></path><path d="M420.45,197.2c.84,4.62,1.64,9.25,2.36,13.89s1.66,9.3,1.66,14.14A56.28,56.28,0,0,0,423,235.51c3.64,58.72,5.32,127.91,9.57,186.42-2.59-18.61-3.45-37.42-4.77-56.16-2.67-43.3-4.44-86.79-6-130.16A54.35,54.35,0,0,1,423.51,225c-.06-8.11-2.14-19.67-3.06-27.83Z" style="fill:#37474f"></path><path d="M377.48,134.32c-21.45,18.9-41.36,39.63-43,50.31-2.3,14.79,6.76,19,10.84,19.08,11.11.24,31.81-44.57,39-61.68C391.32,125.41,382.19,130.17,377.48,134.32Z" style="fill:#FFC727"></path><path d="M375.53,153.67a1.76,1.76,0,0,1-1.76-1.76,2.19,2.19,0,0,0-2.18-2.18h-1.37v.42h1.37a1.76,1.76,0,0,1,1.75,1.76,2.19,2.19,0,0,0,2.19,2.19h1.29v-.43ZM359.11,188a1.76,1.76,0,0,1-1.76-1.76,2.19,2.19,0,0,0-2.19-2.18H353.8v.43h1.36a1.75,1.75,0,0,1,1.76,1.75,2.19,2.19,0,0,0,2.19,2.19h1.29V188Zm-16.42-8.15a1.76,1.76,0,0,1,0-2.49,2.18,2.18,0,0,0,0-3.09l-1-1-.3.31,1,1a1.77,1.77,0,0,1,0,2.49,2.17,2.17,0,0,0,0,3.09l.91.91.3-.3ZM348,196.57l-1,1a1.76,1.76,0,0,1-2.49,0,2.19,2.19,0,0,0-3.09,0l-.91.91.3.3.91-.91a1.77,1.77,0,0,1,2.49,0,2.18,2.18,0,0,0,3.09,0l1-1Zm13.43-31.34-1,1a1.76,1.76,0,0,1-2.49,0,2.19,2.19,0,0,0-3.09,0l-.91.91.3.31.91-.92a1.77,1.77,0,0,1,2.49,0,2.18,2.18,0,0,0,3.09,0l1-1Z" style="fill:#fff"></path><path d="M384.32,142c-7.21,17.11-27.91,61.92-39,61.68a8.84,8.84,0,0,1-2.43-.43L386,130.68C387.36,131.64,387.35,134.83,384.32,142Z" style="opacity:0.1"></path><path d="M429.14,201.86c-.14.17-61.59-.85-62.18-1.44-.22-.23,5.78-54.44,14.12-67.9,3.43-5.55,13-8.4,19.52-.12C420.75,157.92,429.31,201.65,429.14,201.86Z" style="fill:#FFC727"></path><path d="M394.21,181.65a1.76,1.76,0,0,1-1.76-1.76,2.19,2.19,0,0,0-2.19-2.19H388.9v.43h1.36a1.76,1.76,0,0,1,1.76,1.76,2.19,2.19,0,0,0,2.19,2.18h1.29v-.42Zm-18.68-28a1.72,1.72,0,0,1-1.24-.52c0,.16-.07.32-.11.48a2.11,2.11,0,0,0,1.35.47h1.29v-.43Zm2.75,40a1.74,1.74,0,0,1,0-2.48,2.21,2.21,0,0,0,.64-1.55,2.17,2.17,0,0,0-.64-1.54l-1-1-.3.3,1,1a1.74,1.74,0,0,1,0,2.48,2.2,2.2,0,0,0,0,3.1l.92.91.3-.3ZM391,162.46a1.76,1.76,0,0,1,0-2.48,2.19,2.19,0,0,0,0-3.09l-1-1-.3.31,1,1a1.76,1.76,0,0,1,0,2.49,2.19,2.19,0,0,0,0,3.09l.91.91.31-.3Zm33,28.17a1.76,1.76,0,0,1,0-2.49,2.19,2.19,0,0,0,0-3.09l-1-1-.3.3,1,1a1.76,1.76,0,0,1,0,2.49,2.19,2.19,0,0,0,0,3.09l.92.91.3-.3Zm-30.73,10-.65.65h.6l.35-.35Zm-5.91.53,1.92,0A2.23,2.23,0,0,0,387.31,201.19Zm27.38-44.81-.71.71.3.3.59-.59ZM406.64,189v1.29a1.76,1.76,0,0,1-1.76,1.76,2.19,2.19,0,0,0-2.19,2.18v1.37h.43V194.2a1.75,1.75,0,0,1,1.76-1.75,2.19,2.19,0,0,0,2.18-2.19V189Zm-31.36-19.82v1.29a1.76,1.76,0,0,1-1.76,1.76,2.19,2.19,0,0,0-2.18,2.19v1.36h.42v-1.36a1.76,1.76,0,0,1,1.76-1.76,2.19,2.19,0,0,0,2.19-2.19v-1.29Zm15.38-35.6v1.29a1.76,1.76,0,0,1-1.76,1.76,2.19,2.19,0,0,0-2.18,2.18v1.37h.42v-1.37A1.76,1.76,0,0,1,388.9,137a2.2,2.2,0,0,0,2.19-2.19v-1.29ZM410,167.86v1.29a1.76,1.76,0,0,1-1.76,1.76,2.19,2.19,0,0,0-2.19,2.19v1.36h.43V173.1a1.76,1.76,0,0,1,1.76-1.76,2.19,2.19,0,0,0,2.18-2.19v-1.29Zm-4.71-17.07a1.76,1.76,0,0,1-1.76-1.76,2.19,2.19,0,0,0-2.19-2.19H400v.43h1.36a1.76,1.76,0,0,1,1.76,1.76,2.2,2.2,0,0,0,2.19,2.19h1.29v-.43Z" style="fill:#fff"></path><path d="M402.57,132.48c20,15.68,39.57,42.78,39.72,57.93.14,15-5.07,13.51-6.55,13.41-9-.59-30.32-42.22-36.8-59.19S397.63,128.6,402.57,132.48Z" style="fill:#FFC727"></path><path d="M429.54,174.71a1.76,1.76,0,0,1-1.76-1.76,2.19,2.19,0,0,0-2.18-2.19h-1.37v.43h1.37a1.76,1.76,0,0,1,1.75,1.76,2.19,2.19,0,0,0,2.19,2.18h1.29v-.42ZM424,190.63a1.76,1.76,0,0,1,0-2.49,2.19,2.19,0,0,0,0-3.09l-1-1-.3.3,1,1a1.76,1.76,0,0,1,0,2.49,2.19,2.19,0,0,0,0,3.09l.92.91.3-.3Zm-2.52-35.41-1,1a1.77,1.77,0,0,1-2.49,0,2.19,2.19,0,0,0-3.09,0l-.91.91.3.3.91-.91a1.77,1.77,0,0,1,2.49,0,2.19,2.19,0,0,0,3.09,0l1-1Zm19.33,27a2.18,2.18,0,0,0-2,2.18v1.36h.43v-1.36a1.75,1.75,0,0,1,1.71-1.75C440.86,182.48,440.81,182.34,440.76,182.19ZM410,167.86v.8l.4.77a2.64,2.64,0,0,0,0-.28v-1.29Zm28.89,28.39v1.29a1.76,1.76,0,0,1-1.76,1.76,2.19,2.19,0,0,0-2.19,2.18v1.36h.43v-1.36a1.76,1.76,0,0,1,1.76-1.76,2.19,2.19,0,0,0,2.18-2.18v-1.29Zm-33.6-45.46a1.76,1.76,0,0,1-1.76-1.76,2.19,2.19,0,0,0-2.19-2.19H400v.43h1.36a1.76,1.76,0,0,1,1.76,1.76,2.2,2.2,0,0,0,2.19,2.19h1.29v-.43Z" style="fill:#fff"></path><path d="M423.73,192.14c-1.05-1.89-2.12-3.75-3.14-5.65l-3.11-5.66c-2.06-3.79-4.14-7.55-6.14-11.37s-4-7.59-6-11.42q-1.49-2.86-2.9-5.76c-1-1.92-1.86-3.88-2.77-5.84a117.57,117.57,0,0,0,5,12c1.83,3.91,3.82,7.74,5.82,11.56s4.15,7.56,6.36,11.26S421.25,188.6,423.73,192.14Z" style="fill:#263238"></path><path d="M401.77,151.46a17.61,17.61,0,0,0-1.24-2c-.22-.3-.43-.62-.67-.92s-.46-.61-.73-.9a5.71,5.71,0,0,0,1,2.12A6.39,6.39,0,0,0,401.77,151.46Z" style="fill:#263238"></path><path d="M340.72,162.73c1-7,3.14-16.81,5.68-18.84s12.32-9.23,15.1-10.16,15.16-5.48,17.41-4.15c1.8,1.07-.4,5.82-6.29,8a86.07,86.07,0,0,0-9.34,4.42c-1.51.63-5.19,5.46-4.22,7.63.57,1.28,4.25,2.81,6.56,1.8s2.92-5.56,5.57-7.68,7.29-1.81,7.54-.55-1.28,1.82-3.7,6c-1.56,2.71-1.73,9.27-5.24,13.94a82.34,82.34,0,0,0-4.86,8.6Z" style="fill:#ad6359"></path><path d="M373.67,141.88a4.57,4.57,0,0,0,2.31-1,1.93,1.93,0,0,0,.53-.93,1.67,1.67,0,0,0,0-.59.87.87,0,0,0-.22-.56s0-.09.05,0,.15.18.21.28a1.69,1.69,0,0,1,.13.27,1.37,1.37,0,0,1,.09.57,1.85,1.85,0,0,1-.47,1.16,3.15,3.15,0,0,1-2.65.93S373.63,141.89,373.67,141.88Z" style="fill:#263238"></path><path d="M346.4,143.89c2.27-3.48,8.06-9.75,13.75-11.87,3.84-1.42,17,5.13,16.54,7.65s-2.66,2.5-6,2.07c-1.21-.16-7.61-2.54-8.72-1.2-1.59,1.92-3.66,8.52-3.66,8.52Z" style="fill:#ad6359"></path><path d="M376.38,138.68c-1.6-2.71-5.17-4.19-8.72-5.36-.05,0-.08.06,0,.08.91.3,6.68,3,8.71,5.32C376.36,138.75,376.39,138.71,376.38,138.68Z" style="fill:#263238"></path><path d="M346.4,143.89c2.27-3.48,8.06-9.75,13.75-11.87,3.84-1.42,14.18,6.9,13.77,9.41s-3.65,2.69-7.21,1.4c-1.15-.41-5-3.18-6.1-1.84-1.6,1.92-5.48,6.69-5.48,6.69Z" style="fill:#ad6359"></path><path d="M357.37,144.72l.86-1.29c.38-.54.76-1.07,1.17-1.59a5,5,0,0,1,1.2-1.23,2.55,2.55,0,0,1,1.58-.3,9,9,0,0,1,3.4,1.55c1.16.68,3.59,1.8,5.45,1.62a3.77,3.77,0,0,0,1.48-.38,2.31,2.31,0,0,0,.89-.7c.82-1.36-.17-2.94-1.19-4.06a24.09,24.09,0,0,0-7-4.87c-.61-.31-1.24-.6-1.86-.89a5.39,5.39,0,0,0-2.25-.67c-1.3,0-3.44,1.27-4.1,1.66,0,0-.09,0,0-.08.8-.49,2.8-2.09,4.89-2a6.56,6.56,0,0,1,2.16.76c.73.32,1.45.66,2.15,1a28,28,0,0,1,4,2.4,12.26,12.26,0,0,1,3.23,3.11,3.63,3.63,0,0,1,.19,3.73,3.18,3.18,0,0,1-2.37,1.23,6,6,0,0,1-1.64,0,26.17,26.17,0,0,1-3.58-1.09c-1.13-.46-2.14-1.24-3.3-1.6a2.18,2.18,0,0,0-1.7.09,6,6,0,0,0-1.27,1.14,18.06,18.06,0,0,0-2.14,2.48C357.39,145,357.22,145,357.37,144.72Z" style="fill:#263238"></path><path d="M344.71,146.94c.83-1.66,2.29-8.53,3.64-10.63s7.49-9.33,10.32-9c3.56.44-.22,6.82-2.11,9.44s-1.62,7.11-1.62,7.11Z" style="fill:#ad6359"></path><path d="M359.2,132.4c-.67.83-1.26,1.75-1.85,2.65a21.73,21.73,0,0,0-1.62,2.6,9.2,9.2,0,0,0-.72,2.92c-.05.5-.07,1-.08,1.49s0,1.09,0,1.63c0,.06.09.07.09,0a22.77,22.77,0,0,1,.42-2.95,13.12,13.12,0,0,1,.92-2.93c.85-1.85,2.09-3.5,3-5.35C359.36,132.4,359.25,132.35,359.2,132.4Z" style="fill:#263238"></path><path d="M355,144.63a10.2,10.2,0,0,0,.86,5,16.88,16.88,0,0,0,2.57,4.43,20.26,20.26,0,0,1,2.55,4.18,20.53,20.53,0,0,1,1.31,4.79,13.22,13.22,0,0,0-.58-5.06,15.46,15.46,0,0,0-2.45-4.52,23.9,23.9,0,0,1-2.62-4.17A15,15,0,0,1,355,144.63Z" style="fill:#263238"></path><path d="M346.33,203.2c6.94-.94,11.48-12.54,19.4-32.95,1.39-3.58-16.74-25.6-19.2-22.31-3.11,4.14-11.48,27.18-12.35,33.46C332.44,193.78,338.23,204.29,346.33,203.2Z" style="fill:#ad6359"></path><path d="M361.55,181.64l-22.36-21.73s-6.36,18.7-5.76,26.54,3.32,16.77,12.76,17.26C353.26,204.08,361.55,181.64,361.55,181.64Z" style="fill:#FFC727"></path><path d="M357.35,186.27a2.19,2.19,0,0,0-2.19-2.18H353.8v.43h1.36a1.75,1.75,0,0,1,1.76,1.75,2.19,2.19,0,0,0,1.77,2.15c.07-.14.13-.28.19-.42A1.74,1.74,0,0,1,357.35,186.27Zm-14.66-6.39a1.76,1.76,0,0,1,0-2.49,2.18,2.18,0,0,0,0-3.09l-1-1-.3.31,1,1a1.77,1.77,0,0,1,0,2.49,2.17,2.17,0,0,0,0,3.09l.91.91.3-.3ZM348,196.57l-1,1a1.76,1.76,0,0,1-2.49,0,2.19,2.19,0,0,0-3.09,0l-.91.91.3.3.91-.91a1.77,1.77,0,0,1,2.49,0,2.18,2.18,0,0,0,3.09,0l1-1Z" style="fill:#fff"></path><path d="M354.32,196.68c.81-1.14,1.53-2.34,2.23-3.54s1.35-2.45,2-3.69,1.21-2.52,1.72-3.82a23,23,0,0,0,1.3-4c-.59,1.27-1.21,2.5-1.85,3.74l-1.87,3.72c-.61,1.25-1.23,2.49-1.81,3.76S354.84,195.38,354.32,196.68Z" style="fill:#263238"></path><path d="M356.73,185.43c-1.08-1.19-2.27-2.3-3.42-3.42s-2.32-2.24-3.5-3.34c-2.36-2.2-4.73-4.39-7.13-6.54l-2-1.76c-.72-.62-1.51-1.15-2.22-1.77a.05.05,0,1,0-.07.08c.57.55,1.06,1.19,1.62,1.75s1.17,1.15,1.76,1.72l3.52,3.32c2.36,2.2,4.73,4.39,7.15,6.51,1.38,1.2,2.72,2.45,4.16,3.57A.08.08,0,1,0,356.73,185.43Z" style="fill:#263238"></path><path d="M385.53,142c3.62.36,9.64-6.36,11.44-11,.12-.32-.76-3.4-1.65-7.19-.53-2.31-1.06-4.89-1.38-7.28l-14.5,5.65a38.23,38.23,0,0,1,2.68,9,5.66,5.66,0,0,1,0,1,.85.85,0,0,0,0,.16C382.09,134.18,382,141.64,385.53,142Z" style="fill:#ad6359"></path><path d="M382.15,132.11a.85.85,0,0,0,0,.16,9.64,9.64,0,0,0,1.55-.12c8.64-1.35,9.26-12.23,9.26-15.27l-3.62,1.41-9.9,3.85a37.89,37.89,0,0,1,2.67,9A4.74,4.74,0,0,1,382.15,132.11Z" style="fill:#263238"></path><path d="M394.7,99.32c2.09,5.19.63,20.86-2.86,24.63-5.07,5.47-14,6.74-18.85.5-4.67-6-2.41-26.44,1.56-29.94C380.39,89.36,391.6,91.64,394.7,99.32Z" style="fill:#ad6359"></path><path d="M381.27,112.49s.08.05.07.1c-.1,1,0,2.28.89,2.69,0,0,0,.07,0,.06C381.06,115.1,381,113.47,381.27,112.49Z" style="fill:#263238"></path><path d="M382.28,111.45c1.71,0,1.62,3.4,0,3.42S380.85,111.46,382.28,111.45Z" style="fill:#263238"></path><path d="M375.15,112.14s-.09,0-.09.09c0,1.06-.16,2.28-1.13,2.61,0,0,0,.06,0,0C375.11,114.76,375.32,113.15,375.15,112.14Z" style="fill:#263238"></path><path d="M374.23,111c-1.7-.17-1.92,3.24-.35,3.4S375.66,111.16,374.23,111Z" style="fill:#263238"></path><path d="M384,109a12.35,12.35,0,0,1-1.36-.36,2.31,2.31,0,0,1-1.31-.63.74.74,0,0,1,0-.89,1.8,1.8,0,0,1,1.79-.32,2.61,2.61,0,0,1,1.6,1A.77.77,0,0,1,384,109Z" style="fill:#263238"></path><path d="M372.85,108.12a13.49,13.49,0,0,0,1.37-.31,2.32,2.32,0,0,0,1.33-.59.74.74,0,0,0,0-.89,1.78,1.78,0,0,0-1.77-.38,2.64,2.64,0,0,0-1.64,1A.77.77,0,0,0,372.85,108.12Z" style="fill:#263238"></path><path d="M382.7,121.45c-.24.25-.49.6-.87.64a2.86,2.86,0,0,1-1.15-.24s-.07,0,0,.06a1.42,1.42,0,0,0,1.36.54,1.16,1.16,0,0,0,.81-1C382.82,121.43,382.74,121.41,382.7,121.45Z" style="fill:#263238"></path><path d="M381.51,118.3a3.61,3.61,0,0,1-2.37,1.67,5.07,5.07,0,0,1-1.29.09,1,1,0,0,1-.25,0,1.05,1.05,0,0,1-.24,0,.25.25,0,0,1-.21-.23h0v-.11h0v-.1c0-.81,0-2,0-2-.29.15-1.8.87-1.78.45a54,54,0,0,1,1.13-11,.1.1,0,0,1,.2,0c0,3.41-.57,6.79-.61,10.2a6.83,6.83,0,0,1,1.69-.56c.11,0-.14,2.4-.09,2.77v0a5,5,0,0,0,3.71-1.25C381.49,118.15,381.57,118.22,381.51,118.3Z" style="fill:#263238"></path><path d="M376.82,99.62a6,6,0,0,0,5,2.85A6,6,0,0,0,387,99.66a0,0,0,1,1,.08,0,6,6,0,0,1-5.24,3.25,6.12,6.12,0,0,1-5.15-3.26C376.65,99.61,376.77,99.53,376.82,99.62Z" style="fill:#263238"></path><path d="M384.45,87.91a6.38,6.38,0,0,1,6.18,3.47,8.67,8.67,0,0,1,.9,4.28,0,0,0,0,1-.09,0,8,8,0,0,0-3.18-6.25,5.35,5.35,0,0,0-6.21-.08,5.47,5.47,0,0,0-2.1,2.94c0,.13-.23.08-.2-.06A5.55,5.55,0,0,1,384.45,87.91Z" style="fill:#263238"></path><path d="M365.31,90.9a7.15,7.15,0,0,1,3.63-3.31c2.16-.89,4.35-.35,6.52.23.06,0,0,.11,0,.09a9.8,9.8,0,0,0-5.62-.27,7,7,0,0,0-3.76,2.85,6.84,6.84,0,0,0,1.43,8.86,7,7,0,0,0,5.33,1.44c.07,0,.11.1,0,.11a7,7,0,0,1-7.54-10Z" style="fill:#263238"></path><path d="M395.43,102.71s.41-4.76-.61-6.39S391.15,94,391.15,94s-1-4.23-4.78-5c-3.39-.73-6.14,2-6.14,2s-4.06-5.4-9.86-3.51c-5.51,1.79-6,9.72-1.38,12.94,3.24,2.26,8.5-.09,8.5-.09.45.14,4.69,3.71,8.9.08,0,0,2.84,3,4.95,1.48C391.34,101.78,393.63,103.31,395.43,102.71Z" style="fill:#263238"></path><path d="M395,115c-1-1.35-2.48-5.38-3.19-7.16s-.34-9.36-.11-12.71a11,11,0,0,1,3,4.2C395.94,102.41,395.93,109.2,395,115Z" style="fill:#263238;opacity:0.2"></path><path d="M392.51,112.18s3.15-5.24,5.5-4.14.22,8.51-2.38,9.68a2.71,2.71,0,0,1-3.72-1.21Z" style="fill:#ad6359"></path><path d="M397.35,110.15s0,0,0,.07c-1.81.88-2.67,2.68-3.24,4.52a1.5,1.5,0,0,1,2.21-.56c.05,0,0,.11-.05.1a1.68,1.68,0,0,0-1.79.7,8,8,0,0,0-.78,1.55c-.07.17-.38.1-.33-.1v0C393.18,114,394.81,110.56,397.35,110.15Z" style="fill:#263238"></path><polygon points="392.08 173.29 389.17 142.05 387.26 140.52 344.41 140.26 345.4 169.97 347.31 171.5 392.08 173.29" style="fill:#37474f"></polygon><polygon points="390.17 171.76 387.26 140.52 342.5 138.73 345.4 169.97 390.17 171.76" style="fill:#455a64"></polygon><path d="M361.85,153.63a3,3,0,0,1,3.72-1.31,2.37,2.37,0,0,1,1.62,3.18,3,3,0,0,1-3.71,1.3A2.36,2.36,0,0,1,361.85,153.63Z" style="fill:#fff"></path><path d="M437.82,203.79c-6.69.92-15-4.28-36.64-20.06-3-2.18,6.74-27.44,10.05-25.27,4.18,2.73,19.78,14.23,20.82,15.22C440.78,182,442.35,203.17,437.82,203.79Z" style="fill:#ad6359"></path><path d="M419,166.1s-6.15-8.64-10.79-12.18a37.64,37.64,0,0,0-16.63-6.72c-6.48-1-22.8,1.22-23,6-.18,4.35,16.4,1.29,16.4,1.29s-17.42.33-16.66,5.62,19.79.63,19.79.63-17.89.74-16.25,6.07c1.24,4,18.72.78,18.72.78s-15.37.75-14.28,4.94c1.21,4.64,17.53,2.66,17.53,2.66,4.58,10.19,11.14,13.06,15.91,14.64C410.84,190.24,419,166.1,419,166.1Z" style="fill:#ad6359"></path><path d="M390.94,154c-2,0-4.12-.09-6.16.06s-4.08.37-6.1.7a35.24,35.24,0,0,0-7.74,2.06c4.55-1.41,11.86-2.05,13.9-2.2s4.07-.4,6.11-.55C391,154.09,391,154,390.94,154Z" style="fill:#263238"></path><path d="M391.61,161.38c-2.62.07-5.21.05-7.83.23s-5,.59-7.63.95c-.2,0-.12.12.08.1,2.59-.26,5-.29,7.61-.52s5.18-.56,7.78-.69A0,0,0,0,0,391.61,161.38Z" style="fill:#263238"></path><path d="M393.32,167.6a58.49,58.49,0,0,0-11.94,1.27c-.2,0-.08.15.12.12,4-.49,7.07-.91,11.82-1.25C393.39,167.74,393.4,167.61,393.32,167.6Z" style="fill:#263238"></path><path d="M419,162.67l-8.52,31s22.86,13.45,27.91,9.89,1.74-21.48-4-28.31C432,172.44,419,162.67,419,162.67Z" style="fill:#FFC727"></path><path d="M438.9,196.25v1.29a1.76,1.76,0,0,1-1.76,1.76,2.19,2.19,0,0,0-2.19,2.18v1.36h.43v-1.36a1.76,1.76,0,0,1,1.76-1.76,2.19,2.19,0,0,0,2.18-2.18v-1.29ZM438.79,184a2,2,0,0,0,0,.35v1.36h.43v-.41C439.06,184.89,438.93,184.45,438.79,184ZM424,190.63a1.76,1.76,0,0,1,0-2.49,2.19,2.19,0,0,0,0-3.09l-1-1-.3.3,1,1a1.76,1.76,0,0,1,0,2.49,2.19,2.19,0,0,0,0,3.09l.92.91.3-.3Zm5.59-15.92a1.76,1.76,0,0,1-1.76-1.76,2.19,2.19,0,0,0-2.18-2.19h-1.37v.43h1.37a1.76,1.76,0,0,1,1.75,1.76,2.19,2.19,0,0,0,2.19,2.18h1.29v-.42Z" style="fill:#fff"></path><path d="M418.67,163.7l.33-1-.08,0c2.16,1.76,4.33,3.51,6.46,5.29s4.28,3.55,6.31,5.43a30.82,30.82,0,0,1,2.9,2.93,23.12,23.12,0,0,1,2.31,3.4,26.1,26.1,0,0,1,2.75,7.79,22.06,22.06,0,0,0-2.23-8.07,19.65,19.65,0,0,0-2.28-3.57,32.42,32.42,0,0,0-2.92-3c-2.07-1.88-4.24-3.64-6.44-5.36s-4.47-3.33-6.8-4.88l-.06,0,0,.07Z" style="fill:#263238"></path><path d="M424,170.37c-.52,1.52-.92,3.1-1.35,4.65s-.84,3.11-1.24,4.68c-.79,3.12-1.57,6.25-2.3,9.39-.2.86-.4,1.72-.59,2.59s-.28,1.87-.48,2.79c0,.07.09.09.11,0,.21-.76.52-1.5.75-2.26s.44-1.58.65-2.37c.42-1.56.82-3.12,1.22-4.69.79-3.12,1.58-6.25,2.27-9.4.39-1.78.84-3.56,1.12-5.36A.08.08,0,0,0,424,170.37Z" style="fill:#263238"></path><path d="M411.19,190.94c-.17.95-.38,1.88-.57,2.82l-.09-.22c2.33,1.28,5.74,3,8.12,4.27,2.72,1.4,5.45,2.74,8.23,4.06a39.29,39.29,0,0,1-4.35-1.52,68.79,68.79,0,0,1-12.33-6.57c.33-.94.64-1.9,1-2.84Z" style="fill:#263238"></path></g><g id="freepik--Plant--inject-5"><path d="M107.67,371.68a72.36,72.36,0,0,0-2.3,13c.12.22.1,1,0,.81,0,.71-1.12.58-1.12-.12,0-.46,0-.92,0-1.37-2.55-3.16-6.24-5.16-9.23-7.91A17.26,17.26,0,0,1,90,368.06c-2.48-8.53-.15-17.58-3.13-26.1-2.57-7.34-7.18-13.73-11.08-20.38-4.11-7-7.15-14.43-7.46-22.67-.24-6.31.51-14.72,5.32-19.45,5.09-5,11.41-1.25,15.31,3.22,11.31,13,16.55,29.38,18.66,46.16,1.17,9.28,2.38,18.62,2.1,28A75.08,75.08,0,0,1,107.67,371.68Z" style="fill:#FFC727"></path><path d="M105.42,388.11a159.28,159.28,0,0,0-.31-26.3.15.15,0,0,0,0-.09c.15-7.11.71-14.19.43-21.31a125.76,125.76,0,0,0-3.13-22.85.07.07,0,0,0-.14,0,148.55,148.55,0,0,1,2.48,22.35q.21,6-.1,12.05c-.07,1.3-.19,2.62-.27,3.94h0a140.5,140.5,0,0,0-21.15-56c-.14-.23-.55,0-.41.25a146.21,146.21,0,0,1,17.22,41.5c-5.44-10.08-13.66-18.36-19.75-28.05,0-.05-.12,0-.09.06,5.47,10.78,14.52,19.28,20.28,29.9,1,4.33,1.82,8.7,2.43,13.09a145.84,145.84,0,0,1,1.31,18.19c-3.31-6.19-6.75-12.11-9.46-18.66-.07-.18-.32-.06-.26.12,2.3,6.8,5.4,14.13,9.74,19.93q0,6.45-.36,12.91c-.67,11.48-2.64,22.81-3.54,34.26a.26.26,0,0,0,.52.05A261.5,261.5,0,0,0,105.42,388.11Z" style="fill:#263238"></path><path d="M93.23,299.57a.07.07,0,0,0-.13.06c2.1,5.8,3.28,11.67,4.8,17.62a.22.22,0,0,0,.43-.08C97.72,311.14,95.56,305.13,93.23,299.57Z" style="fill:#263238"></path><path d="M146.48,323.87a88,88,0,0,1-4.82,9.91c-3.78,6.86-7.72,13.14-8.43,21.13-.32,3.56-.43,7.15-1.52,10.58a31.57,31.57,0,0,1-4.22,8.28c-4.09,6-9.2,11.1-13,17.29a72.86,72.86,0,0,0-8.63,20.83c-.1.4-.73.29-.64-.11a.32.32,0,0,0,0-.09.1.1,0,0,1,0-.08c-.6-17.12.76-34.38,6-50.78a175.53,175.53,0,0,1,8.29-21.12c2.8-5.95,6.29-11.67,11.2-16.11,3.19-2.87,10.1-8.31,14.63-5.43C147.5,319.55,147.34,321.74,146.48,323.87Z" style="fill:#FFC727"></path><path d="M129.27,362.69a137.8,137.8,0,0,1-10,14.3c-1.65,2.16-3.33,4.31-5,6.48-.78,1-1.66,2-2.38,3.14.46-1.8.9-3.6,1.36-5.4,2.21-8.65,4.33-17.38,7.62-25.7a173.14,173.14,0,0,1,11.89-23.3c.11-.2-.21-.34-.32-.15-3.62,5.95-7.29,11.89-10.33,18.16A96.61,96.61,0,0,0,117.78,361a166,166,0,0,1,5.84-23c0-.06-.08-.11-.1-.05a78.65,78.65,0,0,0-6.06,24,.08.08,0,0,0,0,0q-1.11,3.33-2.06,6.73c-2.7,9.58-5.07,19.25-7.26,29a103.1,103.1,0,0,1,1.65-19c0-.15-.19-.18-.23,0a60.31,60.31,0,0,0-1.65,20.07q-1.24,5.53-2.43,11.09c-1.68,7.89-3.75,15.93-4.73,23.94a.16.16,0,0,0,.32.05c1.17-4.32,1.88-8.8,2.84-13.17s2-8.77,3-13.14c1.48-6.37,3-12.72,4.63-19.07,1.06-2.33,3.11-4.39,4.65-6.34,1.68-2.14,3.37-4.29,5-6.46a98.35,98.35,0,0,0,8.24-12.75C129.48,362.66,129.33,362.6,129.27,362.69Z" style="fill:#263238"></path><path d="M130,355.37a89,89,0,0,0-9.73,15.47c0,.07.07.14.12.07,3.27-5.13,6.49-10.31,9.76-15.45C130.21,355.37,130.07,355.29,130,355.37Z" style="fill:#263238"></path><path d="M57.12,340.11c2.22,3.82,4.75,8.41,3.8,13-.6,2.9-2.73,5.26-3.11,8.22-.86,6.54,5.65,10.86,10.37,13.95,11.76,7.72,27.88,14.59,30,30.34.08.56,1,.42,1-.12a.43.43,0,0,0,0-.11s.06,0,.06-.09A60.53,60.53,0,0,0,99,381.24c-1.76-8.12-5.3-15.41-9.48-22.55C82.43,346.62,74.94,334.26,64.24,325c-3-2.56-9-7.16-11.38-1.39C50.57,329.24,54.4,335.45,57.12,340.11Z" style="fill:#FFC727"></path><path d="M67.88,365.7c7.8,8.44,20.19,13.17,26.9,22.62-4-14.49-10.56-27.52-20.67-38.83a.3.3,0,0,1,.43-.43,76.68,76.68,0,0,1,16.89,24.46,109.35,109.35,0,0,0-7.28-18.6.2.2,0,0,1,.35-.2,70.93,70.93,0,0,1,7.84,20.91c8.84,21.4,9.66,46.5,7.81,69.06,0,.32-.52.33-.51,0,.51-17.78.22-35.86-4-53.22-.09-.37-.19-.72-.28-1.09-7.3-10.17-19.64-14.89-27.57-24.55C67.67,365.74,67.8,365.61,67.88,365.7Z" style="fill:#263238"></path><path d="M66.07,358.45c4.1,3.75,8.12,7.59,12.22,11.35,0,0,0,.11-.06.07a59.4,59.4,0,0,1-12.4-11.18A.17.17,0,0,1,66.07,358.45Z" style="fill:#263238"></path><path d="M65.43,342.19A128.47,128.47,0,0,0,77.67,359c.06.07,0,.16-.1.1a59.25,59.25,0,0,1-12.36-16.82A.13.13,0,0,1,65.43,342.19Z" style="fill:#263238"></path><polygon points="83.85 460.6 119.69 460.6 114.86 412.38 89.37 412.38 83.85 460.6" style="fill:#455a64"></polygon><polygon points="88.47 420.22 115.65 420.22 114.86 412.38 89.37 412.38 88.47 420.22" style="fill:#263238"></polygon><rect x="84.97" y="407.04" width="33.6" height="7.7" transform="translate(203.54 821.78) rotate(180)" style="fill:#455a64"></rect></g><g id="freepik--speech-bubble--inject-5"><path d="M446.67,88.35a21.81,21.81,0,0,1-36.45,13.81l-10.92,1.6,5.46-9.44a21.82,21.82,0,1,1,41.91-6Z" style="fill:#fff"></path><path d="M446.67,88.35a22,22,0,0,1-4.4,11.07,20.07,20.07,0,0,1-4.28,4.22,21.37,21.37,0,0,1-5.26,2.93,21.65,21.65,0,0,1-5.88,1.4,20.44,20.44,0,0,1-3,.06,19.21,19.21,0,0,1-3-.31,22.08,22.08,0,0,1-10.8-5.33l.26.08-10.9,1.67-.8.12.41-.69,5.43-9.46,0,.37A22.06,22.06,0,0,1,405.71,75a22.33,22.33,0,0,1,6.84-7.27,22,22,0,0,1,9.31-3.5,21.76,21.76,0,0,1,18.28,6.07A21.94,21.94,0,0,1,446.67,88.35Zm0,0a21.59,21.59,0,0,0-24.74-23.61,21.42,21.42,0,0,0-9,3.56,22.34,22.34,0,0,0-6.53,7.12,21.45,21.45,0,0,0-2.77,9.23,21.75,21.75,0,0,0,1.53,9.51l.08.2-.1.17-5.5,9.42-.39-.57,10.93-1.53.15,0,.11.1a21.51,21.51,0,0,0,10.45,5.38,19.46,19.46,0,0,0,3,.36,21.08,21.08,0,0,0,8.81-1.29,20.5,20.5,0,0,0,5.27-2.84,24.62,24.62,0,0,0,2.3-1.92,23.43,23.43,0,0,0,2-2.25A21.87,21.87,0,0,0,446.67,88.35Z" style="fill:#263238"></path><polygon points="422.42 98.53 413.1 89.09 416.23 86 421.67 91.51 432.98 73.78 436.69 76.15 422.42 98.53" style="fill:#FFC727"></polygon></g></svg>
